<svg xmlns="http://www.w3.org/2000/svg" width="15" height="15" viewBox="0 0 15 15"><defs><style>.a{fill:#e56744;}</style></defs><path class="a" d="M14.185,6.11h-.214V5.894a5.924,5.924,0,0,0-11.849,0v.216H1.909A1.36,1.36,0,0,0,.547,7.466V9.448A1.36,1.36,0,0,0,1.909,10.8h.759a.351.351,0,0,0,.322-.211,11.12,11.12,0,0,0,2.294,3.034.249.249,0,0,0,.165.062h0a.248.248,0,0,0,.248-.247.245.245,0,0,0-.018-.092c-.006-.023-.018-.063-.032-.119a5.572,5.572,0,0,0,1.767,1.475,2.605,2.605,0,0,0,2.4,0A5.549,5.549,0,0,0,11.5,13.332,3.455,3.455,0,0,0,13.7,10.8h.481a1.36,1.36,0,0,0,1.362-1.355V7.466A1.36,1.36,0,0,0,14.185,6.11ZM3.252,3.836a5.231,5.231,0,0,1,9.8.583,1.782,1.782,0,0,0-.854-.475A2.968,2.968,0,0,0,11.667,3,4.315,4.315,0,0,0,8.218,1.465a6.824,6.824,0,0,0-2.436.492A5.824,5.824,0,0,0,3.252,3.836ZM9.587,14.269a2.107,2.107,0,0,1-1.941,0,5.344,5.344,0,0,1-2.171-2.183c-.014-.024-.026-.049-.04-.074A3.2,3.2,0,0,1,6.161,9.25,6.362,6.362,0,0,1,8.67,8.319a5.593,5.593,0,0,0,3.077-1.355,1.492,1.492,0,0,1,.46.76,4.03,4.03,0,0,1-.073,1.994.246.246,0,0,0,.073.269.249.249,0,0,0,.279.03l.016-.009a7.526,7.526,0,0,1-.744,2.08c-.105.188-.215.361-.328.522a2.748,2.748,0,0,1-1.109.233H9.959a1.007,1.007,0,0,0-.942-.653H8.058a1,1,0,1,0,0,2h.958a1.007,1.007,0,0,0,.942-.653h.363c.107,0,.213-.005.317-.015A4.865,4.865,0,0,1,9.587,14.269Zm2.836-2.4a9.165,9.165,0,0,0,.652-2.183V10.1A2.719,2.719,0,0,1,12.423,11.869Z" transform="translate(-0.547)"/></svg>