<svg xmlns="http://www.w3.org/2000/svg" width="15" height="15" viewBox="0 0 15 15"><defs><style>.a{fill:#e56744;}</style></defs><g transform="translate(4.404)"><path class="a" d="M169.1,0a3.113,3.113,0,1,0,3.1,3.13A3.129,3.129,0,0,0,169.1,0Z" transform="translate(-166)"/></g><g transform="translate(4.397 5.198)"><path class="a" d="M169.945,181h-2.064a4.627,4.627,0,0,0-2.071.508,12.947,12.947,0,0,1,3.1,1.286,12.947,12.947,0,0,1,3.1-1.286A4.627,4.627,0,0,0,169.945,181Z" transform="translate(-165.81 -181)"/></g><g transform="translate(12.936 7.516)"><path class="a" d="M453.032,271A1.032,1.032,0,0,0,452,272.032V274.1a1.032,1.032,0,1,0,2.064,0v-2.064A1.032,1.032,0,0,0,453.032,271Z" transform="translate(-452 -271)"/></g><g transform="translate(0 7.516)"><path class="a" d="M1.032,271A1.032,1.032,0,0,0,0,272.032V274.1a1.032,1.032,0,0,0,2.064,0v-2.064A1.032,1.032,0,0,0,1.032,271Z" transform="translate(0 -271)"/></g><g transform="translate(1.032 4.645)"><path class="a" d="M30.516,211a.516.516,0,0,0-.516.516v.516a2.066,2.066,0,0,1,2.064,2.064v2.064A2.066,2.066,0,0,1,30,218.224v.516a.516.516,0,0,0,.516.516,12.1,12.1,0,0,1,6.742,2.1v-8.683A13.015,13.015,0,0,0,30.516,211Z" transform="translate(-30 -211)"/></g><g transform="translate(6.709 4.645)"><path class="a" d="M278.258,212.032v-.516a.516.516,0,0,0-.516-.516A13.015,13.015,0,0,0,271,212.672v8.683a12.1,12.1,0,0,1,6.742-2.1.516.516,0,0,0,.516-.516v-.516a2.066,2.066,0,0,1-2.064-2.064V214.1A2.066,2.066,0,0,1,278.258,212.032Z" transform="translate(-271 -211)"/></g></svg>