<svg xmlns="http://www.w3.org/2000/svg" width="15" height="13.57" viewBox="0 0 15 13.57"><defs><style>.a{fill:#e56744;}</style></defs><path class="a" d="M2.481,9l3.446,3.536v4.806H5.9v.018H3.074V15.285L.19,11.476a.816.816,0,0,1-.19-.51V5.113a.831.831,0,0,1,1.662,0V8.494a1.1,1.1,0,0,0-.546.278A1.12,1.12,0,0,0,1.1,10.353L2.668,11.97l.214-.21L1.307,10.147a.827.827,0,0,1,.014-1.163.858.858,0,0,1,.349-.2.87.87,0,0,1,.414-.013A.824.824,0,0,1,2.481,9ZM12.519,9,9.07,12.538v4.808H9.1v.016h2.828V15.286l2.883-3.81a.808.808,0,0,0,.191-.51V5.113a.831.831,0,0,0-1.662,0V8.494a1.1,1.1,0,0,1,.546.278,1.12,1.12,0,0,1,.022,1.581L12.332,11.97l-.215-.21,1.576-1.614a.828.828,0,0,0-.017-1.164.839.839,0,0,0-.349-.2.863.863,0,0,0-.413-.013A.839.839,0,0,0,12.519,9ZM7.5,10.318a3.163,3.163,0,0,0,2.308-.96,3.134,3.134,0,0,0,.957-2.308,3.143,3.143,0,0,0-.957-2.308A3.139,3.139,0,0,0,7.5,3.791a3.117,3.117,0,0,0-2.3.951A3.127,3.127,0,0,0,4.237,7.05a3.118,3.118,0,0,0,.958,2.308A3.14,3.14,0,0,0,7.5,10.318Z" transform="translate(0 -3.791)"/></svg>