<svg xmlns="http://www.w3.org/2000/svg" width="15" height="15" viewBox="0 0 15 15"><defs><style>.a{fill:#e56744;}</style></defs><g transform="translate(0 0)"><path class="a" d="M7.5,0A7.5,7.5,0,1,0,15,7.5,7.508,7.508,0,0,0,7.5,0Zm3.154,12.509-.323-.556a.21.21,0,0,0-.181-.1.205.205,0,0,0-.1.028.209.209,0,0,0-.076.286l.324.557a5.879,5.879,0,0,1-2.4.688v-.785a.395.395,0,1,0-.789,0v.785a5.877,5.877,0,0,1-2.366-.671l.32-.559a.209.209,0,0,0-.181-.313.21.21,0,0,0-.182.105l-.32.558a5.969,5.969,0,0,1-1.794-1.733l.678-.392a.395.395,0,1,0-.395-.684l-.679.392a5.879,5.879,0,0,1-.6-2.385l.645,0a.209.209,0,0,0,0-.418l-.645,0a5.881,5.881,0,0,1,.6-2.421l.679.392A.395.395,0,0,0,3.261,4.6l-.678-.392A5.967,5.967,0,0,1,4.346,2.491l.323.556a.206.206,0,0,0,.076.076.211.211,0,0,0,.209,0,.209.209,0,0,0,.076-.286l-.324-.557a5.878,5.878,0,0,1,2.4-.688v.785a.395.395,0,1,0,.789,0V1.593a5.877,5.877,0,0,1,2.366.671l-.32.559a.209.209,0,0,0,.077.285.206.206,0,0,0,.1.028A.21.21,0,0,0,10.3,3.03l.32-.558a5.968,5.968,0,0,1,1.794,1.733l-.678.392a.395.395,0,1,0,.395.684l.679-.392a5.878,5.878,0,0,1,.6,2.385l-.645,0a.209.209,0,0,0-.208.21.209.209,0,0,0,.209.208h0l.645,0a5.881,5.881,0,0,1-.6,2.421l-.679-.392a.395.395,0,0,0-.395.684l.678.392A5.971,5.971,0,0,1,10.654,12.509Z" transform="translate(0 0)"/><path class="a" d="M104,134.257l-2.53,1.4a.827.827,0,0,0-.77,0l-2.53-1.4a.5.5,0,1,0-.481.866l2.581,1.432a.83.83,0,0,0,1.629,0l2.581-1.432a.5.5,0,1,0-.48-.866Z" transform="translate(-93.584 -128.897)"/></g></svg>