<svg xmlns="http://www.w3.org/2000/svg" width="15" height="15" viewBox="0 0 15 15"><defs><style>.a{fill:#e56744;}</style></defs><path class="a" d="M14.954,6.667a.488.488,0,0,0-.482-.369,1.656,1.656,0,0,1-1.134-2.882.417.417,0,0,0,.046-.566,7.425,7.425,0,0,0-1.188-1.2.418.418,0,0,0-.57.046,1.729,1.729,0,0,1-1.871.42A1.666,1.666,0,0,1,8.743.487.416.416,0,0,0,8.374.049a7.485,7.485,0,0,0-1.687,0,.418.418,0,0,0-.371.429,1.669,1.669,0,0,1-1.027,1.6,1.733,1.733,0,0,1-1.857-.423A.418.418,0,0,0,2.866,1.6,7.456,7.456,0,0,0,1.653,2.8a.417.417,0,0,0,.045.57,1.662,1.662,0,0,1,.419,1.871A1.734,1.734,0,0,1,.485,6.258a.408.408,0,0,0-.433.368,7.518,7.518,0,0,0,0,1.705A.5.5,0,0,0,.54,8.7,1.645,1.645,0,0,1,2.084,9.729a1.669,1.669,0,0,1-.42,1.855.416.416,0,0,0-.045.565,7.451,7.451,0,0,0,1.186,1.2.417.417,0,0,0,.571-.045,1.726,1.726,0,0,1,1.87-.42,1.664,1.664,0,0,1,1.015,1.628.416.416,0,0,0,.368.438,7.468,7.468,0,0,0,1.687,0,.417.417,0,0,0,.371-.43,1.667,1.667,0,0,1,1.026-1.6,1.731,1.731,0,0,1,1.857.422.419.419,0,0,0,.566.047,7.466,7.466,0,0,0,1.213-1.2.417.417,0,0,0-.045-.57,1.662,1.662,0,0,1-.42-1.871,1.679,1.679,0,0,1,1.534-1.017l.093,0a.418.418,0,0,0,.439-.368A7.485,7.485,0,0,0,14.954,6.667ZM7.5,11.823a4.324,4.324,0,1,1,3.712-2.107L9.321,7.823A2.652,2.652,0,0,0,6.18,4.231a.3.3,0,0,0-.208.209.293.293,0,0,0,.083.287s.935.942,1.247,1.255a.194.194,0,0,1,.028.139l0,.021a5.978,5.978,0,0,1-.142.915l-.02.019L7.145,7.1a5.892,5.892,0,0,1-.929.144v0l-.016,0H6.186a.2.2,0,0,1-.144-.061c-.326-.326-1.224-1.217-1.224-1.217a.305.305,0,0,0-.218-.1.3.3,0,0,0-.28.226A2.653,2.653,0,0,0,7.914,9.229l1.914,1.914A4.3,4.3,0,0,1,7.5,11.823Z" transform="translate(-0.002 0.001)"/></svg>