<svg xmlns="http://www.w3.org/2000/svg" width="15" height="17.615" viewBox="0 0 15 17.615"><defs><style>.a{fill:#e56744;}</style></defs><path class="a" d="M123.838,158.457a3.4,3.4,0,1,0,3.4,3.4A3.4,3.4,0,0,0,123.838,158.457Zm2.017,2.757-2.433,2.433a.523.523,0,0,1-.74,0l-.93-.93a.523.523,0,0,1,.74-.74l.56.56,2.064-2.064a.523.523,0,0,1,.74.74Zm0,0" transform="translate(-116.338 -153.046)"/><path class="a" d="M14.983,4.778V4.765c-.008-.169-.013-.348-.016-.547a1.867,1.867,0,0,0-1.758-1.829A7.244,7.244,0,0,1,8.278.31L8.266.3A1.127,1.127,0,0,0,6.734.3L6.723.31A7.245,7.245,0,0,1,1.792,2.389,1.867,1.867,0,0,0,.034,4.217c0,.2-.008.377-.016.547V4.8a19.09,19.09,0,0,0,.772,6.968A8.87,8.87,0,0,0,2.917,15.08a11.132,11.132,0,0,0,4.164,2.463,1.289,1.289,0,0,0,.171.046,1.261,1.261,0,0,0,.5,0,1.293,1.293,0,0,0,.171-.047,11.14,11.14,0,0,0,4.16-2.465,8.883,8.883,0,0,0,2.128-3.316A19.119,19.119,0,0,0,14.983,4.778ZM7.5,13.2a4.39,4.39,0,1,1,4.39-4.39A4.395,4.395,0,0,1,7.5,13.2Zm0,0" transform="translate(0 0.001)"/></svg>