<svg xmlns="http://www.w3.org/2000/svg" width="15" height="11.246" viewBox="0 0 15 11.246"><defs><style>.a{fill:#e56744;}</style></defs><path class="a" d="M420,125.5h1.714v1.143H420Zm0,0" transform="translate(-408.428 -121.9)"/><path class="a" d="M2.542,2.705H4V-2.56a.845.845,0,0,1,.857-.831h6v-.831a.281.281,0,0,0-.286-.277H.286A.281.281,0,0,0,0-4.223v9.28l2.34-2.27a.29.29,0,0,1,.2-.081Zm.314-6.1h.857v.554H2.857Zm-1.714,0H2.285v.554H1.143Zm0,1.386H3.714v.554H1.143Zm0,1.386H3.714v.554H1.143Zm.571,1.94H1.143V.765h.571ZM2.285.765H3.714V1.32H2.285Zm0,0" transform="translate(0 4.5)"/><path class="a" d="M231.344,127.584l.655.655v-2.453a.286.286,0,0,0-.286-.286h-1.428a.286.286,0,0,0-.286.286v2.571a.286.286,0,0,0,.286.286h1.31l-.655-.655Zm0,0" transform="translate(-223.638 -121.927)"/><path class="a" d="M162.542,62.705h8.027a.281.281,0,0,0,.286-.277V55.777a.281.281,0,0,0-.286-.277H160.286a.281.281,0,0,0-.286.277v9.28l2.34-2.27a.29.29,0,0,1,.2-.081Zm4.313-5.542a.281.281,0,0,1,.286-.277h2.285a.281.281,0,0,1,.286.277v3.88h-.571V59.1h-1.714v1.94h-.571Zm-1.714,1.663h1.143v.554h-1.143Zm-3.714,1.386V57.717a.845.845,0,0,1,.857-.831h1.428a.845.845,0,0,1,.857.831v2.494a.8.8,0,0,1-.086.356l.476.461-.4.392-.476-.461a.868.868,0,0,1-.367.083h-1.428A.845.845,0,0,1,161.428,60.211Zm0,0" transform="translate(-155.855 -53.811)"/></svg>