<svg xmlns="http://www.w3.org/2000/svg" xmlns:xlink="http://www.w3.org/1999/xlink" width="109" height="109.001" viewBox="0 0 109 109.001"><defs><style>.a{fill:#e4e4e4;}.b{clip-path:url(#a);}.c{stroke:#fff;}.c,.d{stroke-miterlimit:10;stroke-width:2px;}.d{fill:#de8578;stroke:#e4e4e4;}.e{font-size:52px;font-family:Comfortaa-Thin, Comfortaa;font-weight:200;}.f{font-size:15px;font-family:Comfortaa;}</style><clipPath id="a"><rect width="109.001" height="109.001"/></clipPath></defs><g transform="translate(-44.801 -46.7)"><g transform="translate(44.8 46.7)"><circle class="a" cx="54.5" cy="54.5" r="54.5" transform="translate(0.001 0)"/><g class="b"><path class="c" d="M180.51,128.358a1.848,1.848,0,0,0-.724,1.179,1.905,1.905,0,0,0,.322,1.367,50.869,50.869,0,0,1-74.856,67.968h6.379a1.822,1.822,0,1,0,0-3.645H100.723a.953.953,0,0,0-.268.054,1.075,1.075,0,0,0-.4.08,1.6,1.6,0,0,0-.4.241.813.813,0,0,0-.188.134v.027a2.429,2.429,0,0,0-.295.429c-.027.054-.08.107-.107.161s-.027.134-.054.188a3.118,3.118,0,0,0-.107.482v10.908a1.822,1.822,0,0,0,3.645,0v-6.62a54.5,54.5,0,0,0,80.511-72.551,1.784,1.784,0,0,0-1.179-.724,1.845,1.845,0,0,0-1.367.322Z" transform="translate(-84.401 -106.22)"/></g><g class="b"><path class="c" d="M48.4,101.186A50.911,50.911,0,0,1,99.273,50.317a50.372,50.372,0,0,1,33.636,12.7H126.53a1.822,1.822,0,0,0,0,3.645h10.908a.953.953,0,0,0,.268-.054,1.076,1.076,0,0,0,.4-.08,1.75,1.75,0,0,0,.4-.268c.054-.027.134-.08.188-.107V66.13a1.4,1.4,0,0,0,.322-.456c.027-.054.08-.08.08-.134.027-.08.027-.134.054-.214a3.115,3.115,0,0,0,.107-.482V53.962a1.822,1.822,0,1,0-3.645,0v6.62a54.512,54.512,0,0,0-84.88,15.813,54.523,54.523,0,0,0,4.4,56.738,1.823,1.823,0,1,0,2.948-2.144,50.255,50.255,0,0,1-9.675-29.8Z" transform="translate(-44.786 -46.699)"/></g></g><g transform="translate(52.063 53.963)"><path class="d" d="M244.945,77.445V75.622a1.822,1.822,0,1,0-3.645,0v1.822a1.824,1.824,0,0,0,1.822,1.822,1.86,1.86,0,0,0,1.822-1.822Z" transform="translate(-195.899 -73.8)"/><path class="d" d="M243.122,411.267a1.824,1.824,0,0,0,1.822-1.822v-1.823a1.822,1.822,0,0,0-3.645,0v1.823a1.824,1.824,0,0,0,1.822,1.822Z" transform="translate(-195.899 -316.82)"/><path class="d" d="M214.031,81.747a1.3,1.3,0,0,0,.322-.027,1.82,1.82,0,0,0,1.179-.75,1.89,1.89,0,0,0,.295-1.367l-.322-1.8a1.842,1.842,0,0,0-2.117-1.474,1.822,1.822,0,0,0-1.474,2.117l.322,1.8a1.837,1.837,0,0,0,1.8,1.5Z" transform="translate(-174.365 -75.636)"/><path class="d" d="M271.1,403.435a1.82,1.82,0,0,0-1.179.75,1.89,1.89,0,0,0-.295,1.367l.322,1.8a1.837,1.837,0,0,0,1.8,1.5,1.305,1.305,0,0,0,.322-.027,1.816,1.816,0,0,0,1.474-2.091l-.322-1.8a1.861,1.861,0,0,0-2.117-1.5Z" transform="translate(-216.616 -315.071)"/><path class="d" d="M185.766,89.265a1.781,1.781,0,0,0,1.474-.777,1.753,1.753,0,0,0,.214-1.662l-.616-1.715a1.843,1.843,0,0,0-1.394-1.179,1.883,1.883,0,0,0-1.715.616,1.823,1.823,0,0,0-.322,1.8l.616,1.715a1.845,1.845,0,0,0,1.742,1.206Z" transform="translate(-153.443 -81.198)"/><path class="d" d="M297.745,400.186a1.843,1.843,0,0,0,1.394,1.179,1.883,1.883,0,0,0,1.715-.616,1.823,1.823,0,0,0,.322-1.8l-.616-1.715a1.815,1.815,0,0,0-3.109-.59,1.8,1.8,0,0,0-.295,1.823Z" transform="translate(-236.691 -309.651)"/><path class="d" d="M157.752,100.715a1.8,1.8,0,0,0,1.581.911,1.822,1.822,0,0,0,1.581-2.734L160,97.311a1.8,1.8,0,0,0-1.581-.911,1.822,1.822,0,0,0-1.581,2.734Z" transform="translate(-133.899 -90.343)"/><path class="d" d="M323.538,384.335a1.857,1.857,0,0,0-.67,2.493l.911,1.581a1.8,1.8,0,0,0,1.581.911,1.822,1.822,0,0,0,1.581-2.734l-.911-1.581a1.832,1.832,0,0,0-2.493-.67Z" transform="translate(-255.436 -300.93)"/><path class="d" d="M133.016,113.846a1.86,1.86,0,0,0-.643,1.233,1.672,1.672,0,0,0,.429,1.313l1.179,1.394a1.814,1.814,0,0,0,1.715.643,1.873,1.873,0,0,0,1.42-1.179,1.821,1.821,0,0,0-.348-1.8l-1.179-1.394a1.85,1.85,0,0,0-2.573-.214Z" transform="translate(-116.157 -102.804)"/><path class="d" d="M346.516,368.221a1.86,1.86,0,0,0-.643,1.233,1.672,1.672,0,0,0,.429,1.313l1.179,1.394a1.814,1.814,0,0,0,1.715.643,1.873,1.873,0,0,0,1.42-1.179,1.821,1.821,0,0,0-.348-1.8l-1.179-1.394a1.86,1.86,0,0,0-1.233-.643,2.01,2.01,0,0,0-1.34.429Z" transform="translate(-272.437 -288.996)"/><path class="d" d="M115.813,135.926l-1.394-1.179a1.826,1.826,0,1,0-2.359,2.787l1.394,1.179a1.821,1.821,0,0,0,1.8.348,1.792,1.792,0,0,0,1.179-1.42,1.64,1.64,0,0,0-.616-1.715Z" transform="translate(-100.831 -118.103)"/><path class="d" d="M366.561,351.034l1.394,1.179a1.824,1.824,0,0,0,1.8.322,1.843,1.843,0,0,0,1.179-1.394,1.883,1.883,0,0,0-.616-1.715l-1.394-1.179a1.826,1.826,0,1,0-2.358,2.787Z" transform="translate(-287.122 -274.382)"/><path class="d" d="M97.879,163.156a1.8,1.8,0,0,0,.884-3.377l-1.581-.911a1.825,1.825,0,0,0-2.466.67A1.8,1.8,0,0,0,95.36,162l1.581.911a2.035,2.035,0,0,0,.938.241Z" transform="translate(-88.419 -135.899)"/><path class="d" d="M384.593,328.815a1.825,1.825,0,0,0,1.822-3.163l-1.581-.911a1.825,1.825,0,0,0-1.823,3.163Z" transform="translate(-298.962 -257.309)"/><path class="d" d="M86.254,186.024l-1.715-.616a1.821,1.821,0,0,0-2.412,2.037,1.794,1.794,0,0,0,1.179,1.394l1.715.616a1.8,1.8,0,0,0,1.822-.295,1.861,1.861,0,0,0,.643-1.742,1.963,1.963,0,0,0-1.233-1.394Z" transform="translate(-79.366 -155.417)"/><path class="d" d="M397.5,303.109a1.822,1.822,0,0,0,.616-3.538l-1.715-.616a1.8,1.8,0,0,0-1.823.295,1.861,1.861,0,0,0-.643,1.742,1.826,1.826,0,0,0,1.206,1.394l1.715.616a2.691,2.691,0,0,0,.643.107Z" transform="translate(-307.605 -238.518)"/><path class="d" d="M77.623,217.644a1.305,1.305,0,0,0,.322.027,1.823,1.823,0,0,0,.295-3.618l-1.8-.322a1.883,1.883,0,0,0-1.715.616,1.823,1.823,0,0,0-.322,1.8,1.843,1.843,0,0,0,1.394,1.179Z" transform="translate(-73.657 -176.21)"/><path class="d" d="M406.893,273.872a1.89,1.89,0,0,0-.295-1.367,1.758,1.758,0,0,0-1.179-.75l-1.8-.322a1.8,1.8,0,0,0-2.091,1.474,1.842,1.842,0,0,0,1.474,2.117l1.8.322a1.305,1.305,0,0,0,.322.027,1.764,1.764,0,0,0,1.769-1.5Z" transform="translate(-313.169 -218.447)"/><path class="d" d="M71.9,245.022a1.824,1.824,0,0,0,1.822,1.822h1.822a1.822,1.822,0,0,0,0-3.645H73.722a1.824,1.824,0,0,0-1.822,1.822Z" transform="translate(-71.9 -197.799)"/><path class="d" d="M409.367,245.022a1.824,1.824,0,0,0-1.822-1.823h-1.822a1.822,1.822,0,0,0,0,3.645h1.822a1.807,1.807,0,0,0,1.822-1.822Z" transform="translate(-314.92 -197.799)"/><path class="d" d="M76.277,275.354a1.305,1.305,0,0,0,.322-.027l1.8-.322a1.828,1.828,0,0,0,1.474-2.117,1.8,1.8,0,0,0-2.09-1.474l-1.8.322a1.822,1.822,0,0,0-1.5,1.957,1.789,1.789,0,0,0,1.8,1.662Z" transform="translate(-73.785 -218.428)"/><path class="d" d="M404.778,213.826l-1.8.322a1.823,1.823,0,0,0,.295,3.618,1.3,1.3,0,0,0,.322-.027l1.8-.322a1.794,1.794,0,0,0,1.394-1.179,1.824,1.824,0,0,0-.322-1.8,1.773,1.773,0,0,0-1.688-.616Z" transform="translate(-313.145 -176.278)"/><path class="d" d="M83.862,303.177a1.572,1.572,0,0,0,.616-.107l1.715-.616a1.762,1.762,0,0,0,1.152-1.394,1.821,1.821,0,0,0-2.412-2.037l-1.715.616a1.845,1.845,0,0,0-1.179,2.037,1.866,1.866,0,0,0,1.822,1.5Z" transform="translate(-79.306 -238.586)"/><path class="d" d="M396.953,185.407l-1.715.616a1.826,1.826,0,0,0-1.206,1.394,1.884,1.884,0,0,0,.643,1.742,1.8,1.8,0,0,0,1.823.295l1.715-.616a1.843,1.843,0,0,0,1.179-1.394,1.83,1.83,0,0,0-2.439-2.037Z" transform="translate(-307.678 -155.417)"/><path class="d" d="M97.234,328.815l1.581-.911a1.8,1.8,0,0,0,.911-1.581,1.822,1.822,0,0,0-2.734-1.581l-1.581.911a1.8,1.8,0,0,0-.911,1.581,1.834,1.834,0,0,0,.911,1.581,1.778,1.778,0,0,0,1.822,0Z" transform="translate(-88.443 -257.309)"/><path class="d" d="M384.593,158.741l-1.581.911a1.8,1.8,0,0,0-.911,1.581,1.822,1.822,0,0,0,2.734,1.581l1.581-.911a1.8,1.8,0,0,0,.911-1.581,1.822,1.822,0,0,0-2.734-1.581Z" transform="translate(-298.962 -135.799)"/><path class="d" d="M113.6,348.149l-1.394,1.179a1.784,1.784,0,0,0-.188,2.519,1.814,1.814,0,0,0,2.519.241l1.394-1.179a1.757,1.757,0,0,0,.643-1.715,1.873,1.873,0,0,0-1.179-1.42,1.925,1.925,0,0,0-1.8.375Z" transform="translate(-100.947 -274.285)"/><path class="d" d="M367.63,139.024a1.8,1.8,0,0,0,1.152-.429l1.394-1.179a1.819,1.819,0,0,0,.616-1.715,1.794,1.794,0,0,0-1.179-1.394,1.823,1.823,0,0,0-1.8.322l-1.394,1.179a1.786,1.786,0,0,0-.536,2.01,1.871,1.871,0,0,0,1.742,1.206Z" transform="translate(-287.012 -118.012)"/><path class="d" d="M157.514,389.034a1.884,1.884,0,0,0,1.367.188,1.846,1.846,0,0,0,1.1-.858l.911-1.581a1.825,1.825,0,0,0-.67-2.466,1.793,1.793,0,0,0-2.466.643l-.911,1.581a1.884,1.884,0,0,0-.188,1.367,1.756,1.756,0,0,0,.858,1.126Z" transform="translate(-133.902 -300.911)"/><path class="d" d="M324.422,101.626a1.834,1.834,0,0,0,1.581-.911l.911-1.581a1.825,1.825,0,0,0-3.163-1.822l-.911,1.581a1.842,1.842,0,0,0,0,1.822,1.868,1.868,0,0,0,1.581.911Z" transform="translate(-255.409 -90.343)"/><path class="d" d="M186.439,396.212a1.922,1.922,0,0,0-1.394.054,1.84,1.84,0,0,0-.938,1.018L183.491,399a1.823,1.823,0,1,0,3.431,1.233l.616-1.715a1.922,1.922,0,0,0-.054-1.394,1.947,1.947,0,0,0-1.045-.911Z" transform="translate(-153.501 -309.724)"/><path class="d" d="M298.11,89.226a1.922,1.922,0,0,0,1.394-.054,1.84,1.84,0,0,0,.938-1.018l.616-1.715a1.821,1.821,0,0,0-2.037-2.412,1.794,1.794,0,0,0-1.394,1.179l-.616,1.715a1.922,1.922,0,0,0,.054,1.394,1.846,1.846,0,0,0,1.045.911Z" transform="translate(-236.602 -81.266)"/><path class="d" d="M212.254,404.722l-.322,1.8a1.8,1.8,0,0,0,1.474,2.091,1.307,1.307,0,0,0,.322.027,1.837,1.837,0,0,0,1.8-1.5l.322-1.8a1.85,1.85,0,0,0-.59-1.742,1.81,1.81,0,0,0-1.822-.322,1.912,1.912,0,0,0-1.179,1.447Z" transform="translate(-174.384 -314.884)"/><path class="d" d="M271.324,81.728a1.837,1.837,0,0,0,1.8-1.5l.322-1.8a1.824,1.824,0,0,0-3.591-.643l-.322,1.8a1.89,1.89,0,0,0,.295,1.367A1.758,1.758,0,0,0,271,81.7a1.538,1.538,0,0,0,.322.027Z" transform="translate(-216.543 -75.617)"/></g><text class="e" transform="translate(72.138 109.379)"><tspan x="0" y="0">48</tspan></text><text class="f" transform="translate(77.621 127.176)"><tspan x="0" y="0">HOUR</tspan></text></g></svg>