<svg xmlns="http://www.w3.org/2000/svg" width="105" height="104.982" viewBox="0 0 105 104.982"><defs><style>.a{fill:#6e6e6e;}.a,.b{stroke:#000;stroke-linejoin:round;stroke-miterlimit:10;}.b{fill:#e4e4e4;}.c{fill:#a8a89e;}</style></defs><g transform="translate(-49.031 -49.2)"><path class="a" d="M398.943,198.325V179.33l-11.6-8.23-5.043,7.708Z" transform="translate(-246.192 -90.05)"/><g transform="translate(50.33 50.506)"><path class="b" d="M54.131,246.6,54,279.913l.026.052,9.746-16.852Z" transform="translate(-54 -196.33)"/><path class="b" d="M183.955,72.881l.5-18.681L167.285,64.416,157.2,82.549l12.176.732Z" transform="translate(-130.236 -54.2)"/></g><g transform="translate(49.032 49.2)"><path class="c" d="M61.431,155.3a.626.626,0,0,1-.575-.366L51.712,136.2a.617.617,0,0,1,.026-.6L61.3,119.088l-9.458-16.173a.647.647,0,0,1,.157-.836L78.833,80.158A.593.593,0,0,1,79.251,80h.026l11.94.705,14.135-10.085.5-18.368a.71.71,0,0,1,.314-.549.851.851,0,0,1,.34-.1,1.111,1.111,0,0,1,.287.052l30.517,14.475a.771.771,0,0,1,.34.366l6.088,16.069a.7.7,0,0,1-.052.6l-4.781,7.29L155.23,109.6a.641.641,0,0,1,.157.418V136.1a.8.8,0,0,1-.078.34L144.7,154.57a.656.656,0,0,1-.575.314.527.527,0,0,1-.287-.078l-17.9-8.831-22.261,9.275a.773.773,0,0,1-.261.052h-11.6a.575.575,0,0,1-.209-.026L79.486,151.33,61.562,155.3Z" transform="translate(-50.963 -50.973)"/><path d="M104.545,50.506l30.517,14.475L141.15,81.05l-5.043,7.708,16.643,19.517v26.076l-10.608,18.133L124.037,143.5l-22.548,9.38h-11.6l-12.28-4-18.107,4-9.145-18.734L60.1,117.289l-9.641-16.513L77.294,78.855l12.176.732,14.579-10.4.5-18.681m0-1.306a1.266,1.266,0,0,0-.679.183,1.363,1.363,0,0,0-.627,1.071l-.47,18.028L89.1,78.228,77.4,77.523H77.32a1.407,1.407,0,0,0-.836.287L49.624,99.757a1.33,1.33,0,0,0-.314,1.672l9.249,15.86-9.354,16.2a1.356,1.356,0,0,0-.052,1.228L58.3,153.45a1.337,1.337,0,0,0,1.176.732,1.072,1.072,0,0,0,.287-.026l17.767-3.919,11.94,3.893a1.015,1.015,0,0,0,.392.052h11.6a1.06,1.06,0,0,0,.5-.1l22-9.145,17.584,8.727a1.155,1.155,0,0,0,.575.131,1.294,1.294,0,0,0,1.123-.653L153.848,135a1.444,1.444,0,0,0,.183-.653V108.275a1.232,1.232,0,0,0-.314-.836L137.7,88.653l4.52-6.9a1.254,1.254,0,0,0,.131-1.176L136.29,64.511a1.332,1.332,0,0,0-.653-.705L105.094,49.331a1.3,1.3,0,0,0-.549-.131Z" transform="translate(-49.032 -49.2)"/></g><path class="a" d="M249.8,421.48h40.446l.209-.392L272.348,412.1Z" transform="translate(-148.312 -268.082)"/></g></svg>