<svg xmlns="http://www.w3.org/2000/svg" width="80.949" height="99.079" viewBox="0 0 80.949 99.079"><defs><style>.a{fill:#fc8470;}.a,.b{stroke:#000;stroke-miterlimit:10;}.b{stroke-linecap:round;}</style></defs><g transform="translate(-98.51 -77.6)"><g transform="translate(99.001 77.1)"><path class="a" d="M99.028,86.854c-.279,1.09,1.73,1.965,2.681,2.579,7.8-3.577,20.181-5.346,33.847-5.654h.084a3.326,3.326,0,0,1,.084,6.652,104.322,104.322,0,0,0-24.958,3.3c7.686,2.152,17.635,3.326,28.228,3.326,11.459,0,19.451-1.3,26.438-3.252-1.7-.475-1.815-1-3.772-1.359a3.333,3.333,0,0,1,1.286-6.54,61.88,61.88,0,0,1,13.415,4.052,12.994,12.994,0,0,0,2.124-1.817,1.833,1.833,0,0,0,.475-1.062c0-1.23-2.739-3.913-10.341-6.232-7.881-2.431-18.39-3.745-29.625-3.745-10.676,0-20.849,1.23-28.591,3.438C102.047,82.913,99.336,85.624,99.028,86.854Z" transform="translate(-99.001 -76.1)"/><path class="a" d="M114.3,126.786a43.169,43.169,0,0,1-7.322-2.935,3.05,3.05,0,0,1-.307-.168l-.168-.084a53.117,53.117,0,0,0,1.733,8.412,75.263,75.263,0,0,0,14.673,3.857,3.32,3.32,0,0,1-.531,6.6,83.086,83.086,0,0,1-10.9-2.376,40.466,40.466,0,0,0,5.869,8.412,131.931,131.931,0,0,0,18.781,2.264,3.355,3.355,0,0,1,3.158,3.493,3.32,3.32,0,0,1-3.326,3.158c-.391,0-4.583-.252-8.692-.7,2.795,1.845,5.646,3.438,8.356,4.947,1.537.866,3.074,1.7,4.528,2.6,5.142.14,10.4.112,15.623-.168a3.33,3.33,0,0,1,.335,6.652c-2.376.112-4.835.2-7.294.252a14.741,14.741,0,0,1,3.773,10.005c0,5.813-2.208,11.543-4.863,16.406,2.068-1.258,4.22-2.627,6.372-4.08a93.071,93.071,0,0,0,12.8-10.061c-1.341.14-2.683.279-4.052.391a3.339,3.339,0,0,1-.587-6.652c3.41-.307,6.763-.7,10.005-1.174a5.292,5.292,0,0,0,.279-1.481c0-2.767-1.369-3.829-4.472-5.953-3.13-2.152-7.239-5-8.44-11.235-3.326.279-6.763.447-10.257.5a3.326,3.326,0,0,1-.112-6.652c3.521-.056,6.987-.252,10.341-.531a27.843,27.843,0,0,1,2.487-6.987c-5,.531-9.5.755-12.772.838h-.084a3.326,3.326,0,0,1-.084-6.652,146.7,146.7,0,0,0,17.356-1.453c1.761-2.487,3.829-5.114,6.2-7.909a3.061,3.061,0,0,1,.279-.307,120.852,120.852,0,0,1-27.082,2.823C134.029,130.839,122.794,129.385,114.3,126.786Z" transform="translate(-104.404 -110.604)"/><path d="M292.574,425a1.174,1.174,0,1,0,1.174,1.174A1.181,1.181,0,0,0,292.574,425Z" transform="translate(-237.628 -327.769)"/><path d="M151.174,385a1.174,1.174,0,1,0,1.174,1.174A1.163,1.163,0,0,0,151.174,385Z" transform="translate(-135.747 -298.948)"/></g><line class="b" x2="8.049" y2="8.021" transform="translate(123.651 161.978)"/><line class="b" x2="14.421" transform="translate(114.428 174.471)"/></g></svg>