<svg xmlns="http://www.w3.org/2000/svg" width="80.941" height="106.898" viewBox="0 0 80.941 106.898"><defs><style>.a{fill:#a8a89e;}.a,.b,.c{stroke:#000;stroke-miterlimit:10;}.b{fill:#de8578;}.c{fill:none;stroke-linecap:round;stroke-width:2px;}</style></defs><g transform="translate(-75 -19.907)"><path class="a" d="M97.919,116.916a54.353,54.353,0,0,0,17.541,9.366A54.353,54.353,0,0,0,133,116.916c14.037-11.06,22.442-28.785,22.442-47.517V34.958c-23.312-.5-35.929-10.465-39.983-14.358-4.053,3.893-16.671,13.854-39.96,14.358V69.4C75.477,88.085,83.858,105.855,97.919,116.916ZM83.08,43.774A1.883,1.883,0,0,1,84.728,41.9,67.584,67.584,0,0,0,114.36,31.18a1.822,1.822,0,0,1,2.13,0c5.725,3.893,15.526,8.931,29.632,10.717a1.864,1.864,0,0,1,1.649,1.878V69.4c0,16.4-7.3,31.9-19.533,41.517a48.918,48.918,0,0,1-12.137,7.053,1.866,1.866,0,0,1-.71.137,1.57,1.57,0,0,1-.71-.137,48.111,48.111,0,0,1-12.137-7.053C90.316,101.321,83.011,85.8,83.011,69.4V43.774Z" transform="translate(0)"/><path class="b" d="M126.607,141.825a52.012,52.012,0,0,0,12.114,7.168,51.091,51.091,0,0,0,12.114-7.168c13.053-10.282,20.861-26.93,20.861-44.517V69.622A82.488,82.488,0,0,1,138.675,57.6,82.51,82.51,0,0,1,105.7,69.622V97.308C105.723,114.895,113.555,131.543,126.607,141.825Z" transform="translate(-23.284 -28.527)"/><path class="c" d="M150.4,189.379l18.205,18.182,30.96-34.762" transform="translate(-57.748 -117.347)"/></g></svg>