<svg xmlns="http://www.w3.org/2000/svg" width="96.1" height="96.1" viewBox="0 0 96.1 96.1"><defs><style>.a{stroke:#fff;}.a,.f,.h{stroke-miterlimit:10;}.b{fill:#a8a89e;}.c{fill:#e4e4e4;}.d,.e{fill:none;}.e,.f{stroke:#000;}.e{stroke-linecap:round;stroke-linejoin:round;}.f{fill:#fc8470;stroke-width:0.75px;}.g{fill:#6e6e6e;}.h{stroke:#e4e4e4;stroke-width:1.5px;}</style></defs><g transform="translate(0.001)"><path class="a" d="M87.8,55.7H86.3V.5H.5V71H71V87.9a7.7,7.7,0,0,0,7.7,7.7h9.2a7.7,7.7,0,0,0,7.7-7.7h0V63.3A7.77,7.77,0,0,0,87.8,55.7ZM3.6,3.6H83.3V15.9H77.2V9.7H9.7v6.1H3.6ZM77.1,34.2V28.1h6.1v6.1Zm6.1,3.1V55.7H78.6a7.719,7.719,0,0,0-1.5.2V37.3ZM77.1,25V18.9h6.1V25ZM3.6,18.9H9.7V25H3.6Zm0,9.2H9.7v6.1H3.6ZM71,63.3v4.6H3.6V37.3H9.7V61.8H71.1A7.569,7.569,0,0,0,71,63.3Zm1.6-4.6H12.7v-46H74V57.2A12.2,12.2,0,0,1,72.6,58.7ZM92.4,87.8a4.653,4.653,0,0,1-4.6,4.6H78.6A4.653,4.653,0,0,1,74,87.8V63.3c0-3.7,2.1-4.6,4.6-4.6h9.2a4.653,4.653,0,0,1,4.6,4.6Z"/><path class="b" d="M72.8,59.2H12.3v-47H74.6V57.5C73.9,58.2,73.5,58.6,72.8,59.2Z"/><path class="c" d="M77.9,58.2H88.6a4.268,4.268,0,0,1,4.3,4.3v26a4.268,4.268,0,0,1-4.3,4.3H77.9a4.268,4.268,0,0,1-4.3-4.3v-26A4.267,4.267,0,0,1,77.9,58.2Z"/><path class="d" d="M29.2,59.6a3.9,3.9,0,0,1,0-3,.367.367,0,0,1-.3-.1H22.8a1.5,1.5,0,0,0,0,3H29c0,.1.1.1.2.1Z"/><path class="d" d="M38.1,48.9a4.6,4.6,0,1,0,4.6-4.6A4.653,4.653,0,0,0,38.1,48.9Z"/><path class="d" d="M62.7,58.1a1.538,1.538,0,0,0-1.5-1.5H55a1.538,1.538,0,0,0-1.5,1.5h0A1.538,1.538,0,0,0,55,59.6h6.1A1.561,1.561,0,0,0,62.7,58.1Z"/><path class="d" d="M50.7,56.6a.367.367,0,0,1-.3-.1H44.3a1.5,1.5,0,0,0,0,3h6.1a.367.367,0,0,0,.3-.1h0A3.408,3.408,0,0,1,50.7,56.6Z"/><path class="d" d="M12.8,14.6V59.7h5.8a4.013,4.013,0,0,1-.3-1.5,4.653,4.653,0,0,1,4.6-4.6H29a4.645,4.645,0,0,1,2.3.6,3.387,3.387,0,0,1,1.5-.6,15.72,15.72,0,0,1-4.5-4.4c-2-3.1-3.8-8.5-.4-16.2l1.3-3,1.5,3s.9,1.7,4.1,3c-1.3-10.1,6.7-17,7-17.3l2.5-2.1v3.3c0,6.2,1.9,7.7,3.8,9.2,2,1.6,3.5,3.1,3,6.9,3-1.3,3.8-2.9,3.8-2.9L56.3,30l1.4,3.1c3.4,7.7,1.6,13.1-.4,16.2A14.4,14.4,0,0,1,52.2,54c.2.1.3.1.5.2a4.645,4.645,0,0,1,2.3-.6h6.1a4.653,4.653,0,0,1,4.6,4.6,4.012,4.012,0,0,1-.3,1.5h2.7V14.6Z"/><path class="d" d="M39.7,56.6H33.6a1.5,1.5,0,0,0,0,3h6.1a.367.367,0,0,0,.3-.1,3.652,3.652,0,0,1,0-2.9Z"/><path class="d" d="M35.1,48.8a7.65,7.65,0,0,1,15.3.1,7.173,7.173,0,0,1-.6,2.9,12.759,12.759,0,0,0,4.9-4.3c2-3,2.3-6.7,1.1-10.9a16.591,16.591,0,0,1-6.4,3.1l-2.6.7.7-2.5c1.2-4.3.3-5-1.4-6.4a10.849,10.849,0,0,1-4.7-8c-2.2,2.9-5,8-3.3,14.3l.7,2.6-2.6-.7a15.073,15.073,0,0,1-6.6-3.2c-1.3,4.2-1,7.9,1,11a12.759,12.759,0,0,0,4.9,4.3A15.438,15.438,0,0,1,35.1,48.8Z"/><line class="e" x2="6.1" transform="translate(55 59.6)"/><line class="e" x2="6.2" transform="translate(22.8 59.6)"/><path class="f" d="M65.7,58.1a4.653,4.653,0,0,0-4.6-4.6H55a4.645,4.645,0,0,0-2.3.6c-.2-.1-.3-.2-.5-.2a17.574,17.574,0,0,0,5.1-4.7c2-3.1,3.8-8.5.4-16.2l-1.4-3.1L54.9,33s-.8,1.6-3.8,2.9c.5-3.8-1-5.3-3-6.9-1.9-1.5-3.8-3-3.8-9.2V16.5l-2.5,2.1c-.4.3-8.3,7.2-7,17.3-3.2-1.3-4.1-3-4.1-3l-1.5-3-1.3,3c-3.4,7.7-1.6,13.1.4,16.2a14.524,14.524,0,0,0,4.5,4.4,4.714,4.714,0,0,0-1.5.6,4.645,4.645,0,0,0-2.3-.6H22.9a4.653,4.653,0,0,0-4.6,4.6,4.013,4.013,0,0,0,.3,1.5h4.3a1.5,1.5,0,0,1,0-3H29a.367.367,0,0,1,.3.1,3.9,3.9,0,0,0,0,3h0a.367.367,0,0,0-.3.1H55a1.538,1.538,0,0,1-1.5-1.5h0A1.538,1.538,0,0,1,55,56.8h6.1a1.5,1.5,0,1,1,0,3h4.3A6.093,6.093,0,0,0,65.7,58.1ZM47.3,48.9a4.6,4.6,0,1,1-4.6-4.6A4.653,4.653,0,0,1,47.3,48.9ZM39.9,59.6a.367.367,0,0,0-.3.1H33.5a1.5,1.5,0,1,1,0-3h6.1a.367.367,0,0,1,.3.1A4.456,4.456,0,0,0,39.9,59.6Zm10.5,0H44.3a1.5,1.5,0,0,1,0-3h6.1a.367.367,0,0,1,.3.1,3.9,3.9,0,0,0,0,3h0A.367.367,0,0,0,50.4,59.6Z"/><rect class="g" width="7.2" height="31.8" transform="translate(3 36.7)"/><rect class="g" width="7.2" height="62.1" transform="translate(72.15 61.267) rotate(90)"/><rect class="g" width="7.2" height="80.8" transform="translate(83.78 3.019) rotate(90)"/><rect class="g" width="7.2" height="7.2" transform="translate(3 27.6)"/><rect class="g" width="7.2" height="7.2" transform="translate(3 18.4)"/><rect class="g" width="7.2" height="7.2" transform="translate(3 9.2)"/><rect class="g" width="7.2" height="7.2" transform="translate(76.6 9.2)"/><rect class="g" width="7.2" height="19.7" transform="translate(76.6 36.7)"/><rect class="g" width="7.2" height="7.2" transform="translate(76.6 27.6)"/><rect class="g" width="7.2" height="7.2" transform="translate(76.6 18.4)"/><path class="h" d="M77.1,77.1H89.4V61.8H77.1Zm3.1-12.2h6.1V68H80.2Zm0,6.1h6.1v3H80.2Z"/></g></svg>