<svg xmlns="http://www.w3.org/2000/svg" width="128.832" height="119.96" viewBox="0 0 128.832 119.96"><defs><style>.a,.b{fill:#fc8470;}.b,.d{stroke:#000;}.b,.c,.d{stroke-miterlimit:10;}.c{stroke:#fc8470;}.d{fill:#c2a88b;}</style></defs><g transform="translate(-37.405 -58.349)"><g transform="translate(56.092 58.9)"><path class="a" d="M183.929,109.946c-1.657-1.687-4.189-4.219-4.972-8.317a15.359,15.359,0,0,1-.151-4.46v-.03a1.534,1.534,0,0,0-1.838-1.6,15.188,15.188,0,0,0-3.857,1.446A16.242,16.242,0,0,0,166,105.336a1.538,1.538,0,0,1-1.9.874l-.6-.211a1.535,1.535,0,0,1-.9-2.049,20.087,20.087,0,0,1,8.257-9.914C168.139,86.5,164.282,80.6,159.4,76.408c-.482-.422-1.085-.9-1.718-1.446-4.279-3.5-10.758-8.769-10.547-14.856v-.271c0-.181.03-.633,0-.934-.512.09-1.748.573-4.52,2.561-8.166,5.906-15.88,11.481-20.853,22.932a49.562,49.562,0,0,0-3.074,9.884,21.647,21.647,0,0,1,6.449,10.155,1.513,1.513,0,0,1-1.085,1.929l-.633.151a1.516,1.516,0,0,1-1.838-1.025,17.212,17.212,0,0,0-6.6-9.372c-3.556-2.35-4.791-1.989-5.062-1.808-.331.181-.422,1.025-.573,2.35a22.049,22.049,0,0,1-.814,4.369c-1.3,4.279-3.827,6.6-5.846,8.5a19.113,19.113,0,0,0-2.2,2.26c-5.334,7.051.121,26.518,12.988,36.763,10.607,8.437,22.9,7.9,31.912,7.473,9.583-.422,21.515-.934,30.8-10.185,10.547-10.517,13.952-28.868,8.8-34.865C184.652,110.7,184.321,110.338,183.929,109.946Z" transform="translate(-98.392 -58.9)"/><path class="b" d="M175.974,145.936c-9.281,9.251-21.214,9.763-30.8,10.185-8.98.392-21.3.934-31.912-7.473-12.9-10.245-18.321-29.682-12.988-36.763a19.114,19.114,0,0,1,2.2-2.26,18.213,18.213,0,0,0,5.846-8.5,22.048,22.048,0,0,0,.814-4.369c.151-1.326.241-2.14.573-2.35.3-.181,1.507-.542,5.062,1.808a17.108,17.108,0,0,1,6.6,9.372,1.516,1.516,0,0,0,1.838,1.025l.633-.151a1.513,1.513,0,0,0,1.085-1.929,21.647,21.647,0,0,0-6.449-10.155,49.561,49.561,0,0,1,3.074-9.884c4.972-11.451,12.686-17.026,20.853-22.932,2.742-1.989,3.978-2.471,4.52-2.561.03.3,0,.723,0,.934v.271c-.181,6.087,6.268,11.36,10.547,14.856.633.512,1.235.994,1.718,1.446,4.882,4.189,8.709,10.125,11.451,17.628a20.055,20.055,0,0,0-8.257,9.914,1.545,1.545,0,0,0,.9,2.049l.6.211a1.51,1.51,0,0,0,1.9-.874,16.127,16.127,0,0,1,7.112-8.347,15.188,15.188,0,0,1,3.857-1.446,1.548,1.548,0,0,1,1.838,1.6v.03a15.358,15.358,0,0,0,.151,4.46,16.082,16.082,0,0,0,4.972,8.317c.392.392.723.723.994,1.025C189.926,117.068,186.521,135.419,175.974,145.936Z" transform="translate(-98.242 -58.97)"/><g transform="translate(30.793 54.131)"><circle cx="2.109" cy="2.109" r="2.109"/><circle cx="2.109" cy="2.109" r="2.109" transform="translate(25.655)"/></g><path class="c" d="M225.216,292.336l.06-.03a1.278,1.278,0,0,1,1.627.422,6.239,6.239,0,0,0,10.637-.151,1.245,1.245,0,0,1,1.567-.452l.06.03a1.262,1.262,0,0,1,.542,1.868,8.8,8.8,0,0,1-14.916.211A1.267,1.267,0,0,1,225.216,292.336Z" transform="translate(-186.477 -221.762)"/></g><path class="d" d="M162.482,380.372l-37.426-6.358,37.426-6.358a3.9,3.9,0,0,0,3.194-4.49h0a3.911,3.911,0,0,0-4.49-3.194l-59.363,10.065L42.459,360a3.889,3.889,0,0,0-4.49,3.194h0a3.889,3.889,0,0,0,3.194,4.49l37.426,6.358-37.426,6.328a3.911,3.911,0,0,0-3.194,4.49h0a3.911,3.911,0,0,0,4.49,3.194l59.363-10.065,59.363,10.065a3.889,3.889,0,0,0,4.49-3.194h0A3.873,3.873,0,0,0,162.482,380.372Z" transform="translate(0 -210.309)"/></g></svg>