<svg xmlns="http://www.w3.org/2000/svg" width="15" height="15" viewBox="0 0 15 15"><defs><style>.a{fill:#acacac;}</style></defs><path class="a" d="M12.8,0H2.2A2.2,2.2,0,0,0,0,2.2V12.8A2.2,2.2,0,0,0,2.2,15H12.8A2.2,2.2,0,0,0,15,12.8V2.2A2.2,2.2,0,0,0,12.8,0ZM7.529,11.426a3.955,3.955,0,1,1,3.955-3.955A3.959,3.959,0,0,1,7.529,11.426Zm4.395-7.031a1.318,1.318,0,1,1,1.318-1.318A1.32,1.32,0,0,1,11.924,4.395Zm0,0"/><path class="a" d="M392.437,90a.437.437,0,1,0,.438.437A.438.438,0,0,0,392.437,90Zm0,0" transform="translate(-380.512 -87.363)"/><path class="a" d="M155.062,150a3.062,3.062,0,1,0,3.062,3.062A3.066,3.066,0,0,0,155.062,150Zm0,0" transform="translate(-147.533 -145.592)"/></svg>