<svg xmlns="http://www.w3.org/2000/svg" width="80" height="56.301" viewBox="0 0 80 56.301"><defs><style>.a{fill:#e56744;}</style></defs><g transform="translate(0 -45.917)"><path class="a" d="M76.882,50.75c-2.888-3.433-8.219-4.833-18.4-4.833H21.519C11.1,45.917,5.682,47.408,2.8,51.062,0,54.626,0,59.876,0,67.143v13.85c0,14.078,3.328,21.225,21.519,21.225H58.481c8.83,0,13.723-1.236,16.888-4.265C78.615,94.846,80,89.774,80,80.993V67.143C80,59.479,79.783,54.2,76.882,50.75ZM51.36,75.98,34.576,84.752A2.581,2.581,0,0,1,30.8,82.464V64.977a2.581,2.581,0,0,1,3.77-2.29L51.354,71.4a2.581,2.581,0,0,1,.006,4.578Z" transform="translate(0 0)"/></g></svg>