<svg xmlns="http://www.w3.org/2000/svg" width="20" height="18.536" viewBox="0 0 20 18.536"><g transform="translate(0)"><path d="M19.427,228.24a.59.59,0,0,0-.573.61V234.4a2.659,2.659,0,0,1-2.568,2.735H3.714A2.659,2.659,0,0,1,1.146,234.4V228.76a.59.59,0,0,0-.573-.61.59.59,0,0,0-.573.61V234.4a3.844,3.844,0,0,0,3.714,3.955H16.286A3.844,3.844,0,0,0,20,234.4v-5.551A.593.593,0,0,0,19.427,228.24Z" transform="translate(0 -219.82)"/><path d="M140.287,32.143a.614.614,0,0,0,.429.181.6.6,0,0,0,.429-.181l3.878-3.878a.61.61,0,1,0-.863-.863l-2.834,2.839V17.86a.61.61,0,1,0-1.22,0V30.24L137.268,27.4a.61.61,0,0,0-.863.863Z" transform="translate(-130.717 -17.25)"/></g></svg>