<svg xmlns="http://www.w3.org/2000/svg" width="83.846" height="86.719" viewBox="0 0 83.846 86.719"><defs><style>.a{fill:#acacac;}</style></defs><g transform="translate(0)"><path class="a" d="M91.746,24.661v-.072a.182.182,0,0,1-.018-.054,1.258,1.258,0,0,0-.09-.452L83.689,2.8A4.347,4.347,0,0,0,79.624,0H20.041a4.337,4.337,0,0,0-4.065,2.818L8.008,24.064a2,2,0,0,0-.09.452c0,.018-.018.036-.018.054v.181a11.394,11.394,0,0,0,7.227,10.479V82.383a4.326,4.326,0,0,0,4.336,4.336h60.7A4.326,4.326,0,0,0,84.5,82.383V35.248A11.442,11.442,0,0,0,91.71,24.769v-.054C91.728,24.679,91.746,24.679,91.746,24.661ZM18.668,3.848a1.463,1.463,0,0,1,1.373-.958H79.624A1.472,1.472,0,0,1,81,3.83l7.227,19.295H11.459ZM68.495,26.016a8.666,8.666,0,0,1-17.091,0Zm-20.234,0a8.666,8.666,0,0,1-17.091,0Zm-37.325,0H28.026c0,.036-.018.054-.018.09a8.646,8.646,0,0,1-.343,1.3c-.018.072-.054.145-.072.217a8.117,8.117,0,0,1-.56,1.21,1.008,1.008,0,0,1-.09.145,8.052,8.052,0,0,1-.795,1.138l-.018.018a8.141,8.141,0,0,1-.958.976l-.108.09a9.119,9.119,0,0,1-1.084.777l-.181.108a7.742,7.742,0,0,1-1.174.56,1.019,1.019,0,0,1-.217.072,8.173,8.173,0,0,1-1.3.361.557.557,0,0,1-.181.018,10.037,10.037,0,0,1-1.463.145A8.664,8.664,0,0,1,10.935,26.016ZM35.379,83.828V47.7a1.45,1.45,0,0,1,1.445-1.445H62.84A1.45,1.45,0,0,1,64.285,47.7V83.828Zm46.25-1.445a1.45,1.45,0,0,1-1.445,1.445H67.176V47.7a4.326,4.326,0,0,0-4.336-4.336H36.824A4.326,4.326,0,0,0,32.488,47.7V83.828H19.481a1.45,1.45,0,0,1-1.445-1.445V36.042a12.933,12.933,0,0,0,1.445.09q.569,0,1.138-.054L21,36.024l.741-.108.434-.108.65-.163c.145-.054.289-.09.434-.145l.6-.217a4.619,4.619,0,0,0,.434-.2c.181-.09.361-.163.542-.271a3.089,3.089,0,0,0,.416-.235c.181-.108.343-.2.506-.307.126-.09.271-.181.4-.271a4.625,4.625,0,0,0,.47-.361c.126-.108.253-.2.379-.307.145-.126.289-.271.434-.4.108-.108.235-.217.343-.325.145-.145.271-.289.416-.452.108-.108.2-.235.307-.343.126-.163.253-.343.379-.506a4.383,4.383,0,0,0,.253-.361c.126-.2.253-.4.361-.6.036-.072.09-.126.126-.2a11.548,11.548,0,0,0,20.234,0,11.548,11.548,0,0,0,20.234,0,1.9,1.9,0,0,0,.126.2c.126.2.235.4.361.6a4.382,4.382,0,0,0,.253.361c.126.181.253.343.379.506a2.777,2.777,0,0,0,.307.343,4.925,4.925,0,0,0,.416.452c.108.108.217.217.343.325.145.145.289.271.434.4.126.108.253.2.379.307.163.126.307.235.47.361.126.09.271.181.4.271.163.108.343.217.506.307.145.072.271.163.416.235l.542.271c.145.072.289.126.434.2l.6.217a4.065,4.065,0,0,0,.434.145c.217.072.434.108.65.163l.434.108c.235.054.488.072.741.108l.379.054q.569.054,1.138.054a12.933,12.933,0,0,0,1.445-.09v46.34Zm1.03-49.5a8.821,8.821,0,0,1-2.475.361,10,10,0,0,1-1.463-.126c-.054-.018-.108-.018-.181-.036a8.173,8.173,0,0,1-1.3-.361c-.072-.018-.145-.054-.217-.072a8.763,8.763,0,0,1-1.174-.56l-.181-.108a9.119,9.119,0,0,1-1.084-.777l-.108-.09a9.745,9.745,0,0,1-.958-.976l-.018-.018a9.877,9.877,0,0,1-.795-1.138,1.008,1.008,0,0,0-.09-.145,9.224,9.224,0,0,1-.56-1.21,1.019,1.019,0,0,1-.072-.217,9.8,9.8,0,0,1-.343-1.3.163.163,0,0,0-.018-.09H88.711A8.513,8.513,0,0,1,82.659,32.881Z" transform="translate(-7.9)"/></g></svg>