<svg xmlns="http://www.w3.org/2000/svg" width="86.719" height="86.719" viewBox="0 0 86.719 86.719"><defs><style>.a{fill:#acacac;}</style></defs><g transform="translate(0)"><path class="a" d="M85.273,37.578h-1.7l-2.656-13.3a1.448,1.448,0,0,0-1.409-1.156H62.167a.425.425,0,0,0-.145.036,1.578,1.578,0,0,0-.4.09.732.732,0,0,0-.163.09,1.557,1.557,0,0,0-.325.253c-.036.036-.072.036-.09.072a.139.139,0,0,1-.036.054,1.915,1.915,0,0,0-.2.379c-.018.054-.036.09-.054.145,0,.018-.018.018-.018.036l-2.674,13.3H37.578V36.133A4.326,4.326,0,0,0,33.242,31.8V28.906H44.8a4.326,4.326,0,0,0,4.336-4.336V4.336A4.326,4.326,0,0,0,44.8,0H10.117A4.326,4.326,0,0,0,5.781,4.336V24.57a4.326,4.326,0,0,0,4.336,4.336H21.68V31.8a4.326,4.326,0,0,0-4.336,4.336v1.445H1.445A1.45,1.45,0,0,0,0,39.023v46.25a1.45,1.45,0,0,0,1.445,1.445H7.227a1.45,1.45,0,0,0,1.445-1.445V75.156H78.047V85.273a1.45,1.45,0,0,0,1.445,1.445h5.781a1.45,1.45,0,0,0,1.445-1.445V39.023A1.45,1.45,0,0,0,85.273,37.578ZM78.3,26.016l2.313,11.563h-14.4L63.9,26.016ZM61.986,32.754l1.21,4.824H61.028ZM8.672,4.336a1.45,1.45,0,0,1,1.445-1.445H44.8A1.45,1.45,0,0,1,46.25,4.336v15.9H8.672Zm0,20.234V23.125H46.25V24.57A1.45,1.45,0,0,1,44.8,26.016H10.117A1.45,1.45,0,0,1,8.672,24.57Zm15.9,4.336h5.781V31.8H24.57Zm-4.336,7.227a1.45,1.45,0,0,1,1.445-1.445H33.242a1.45,1.45,0,0,1,1.445,1.445v1.445H20.234ZM8.672,72.266V46.25H78.047V72.266ZM83.828,83.828H80.938V44.8a1.45,1.45,0,0,0-1.445-1.445H7.227A1.45,1.45,0,0,0,5.781,44.8V83.828H2.891V40.469H83.828Z"/></g></svg>