<svg xmlns="http://www.w3.org/2000/svg" width="92.502" height="75.666" viewBox="0 0 92.502 75.666"><defs><style>.a{fill:#acacac;}</style></defs><path class="a" d="M50.1,142.018a1.355,1.355,0,1,0,0-2.71H13.893V103.374a1.365,1.365,0,0,0-1.355-1.355H5.564a2.862,2.862,0,0,1-2.023-4.878,2.811,2.811,0,0,1,2.023-.831h11a1.355,1.355,0,0,0,0-2.71h-11A5.551,5.551,0,0,0,0,99.164v45.329a5.567,5.567,0,0,0,5.564,5.564h6.974a1.365,1.365,0,0,0,1.355-1.355v-6.666l36.205-.018ZM5.564,147.329a2.861,2.861,0,0,1-2.854-2.854V103.934a5.466,5.466,0,0,0,2.854.795h5.619v42.6Z" transform="translate(0 -85.181)"/><path class="a" d="M124.642,155.4h-9.087a1.365,1.365,0,0,0-1.355,1.355v19.168a1.365,1.365,0,0,0,1.355,1.355h22.854a1.365,1.365,0,0,0,1.355-1.355v-9.9a1.365,1.365,0,0,0-1.355-1.355h-2.4a1.354,1.354,0,0,0-.958.4l-3.144,3.144a1.354,1.354,0,0,0,1.915,1.915l2.746-2.746h.488v7.19H126v-7.19h3.74a1.355,1.355,0,0,0,0-2.71H126v-7.913A1.365,1.365,0,0,0,124.642,155.4Zm-1.355,19.168H116.91V158.11h6.377v6.558H119.4a1.355,1.355,0,0,0,0,2.71h3.866v7.19Z" transform="translate(-93.568 -135.816)"/><path class="a" d="M272.155,166.969a1.355,1.355,0,0,0,0,2.71H275.3a1.355,1.355,0,0,0,0-2.71h-.217V143.41h.217a1.355,1.355,0,0,0,0-2.71h-3.144a1.355,1.355,0,0,0,0,2.71h.217v23.559Z" transform="translate(-221.876 -123.772)"/><path class="a" d="M185.137,84.271a.844.844,0,0,0,.09-.181c0-.018.018-.036.018-.054a.4.4,0,0,1,.054-.09,6.766,6.766,0,0,0-6.088-9.72,6.678,6.678,0,0,0-4.661,1.861h0l-.054.054h0l-.054.054-6.125,6.125a1.354,1.354,0,0,0,1.915,1.915l3.884-3.884,5.745,5.745-29.7,29.683-5.745-5.745,21.951-21.951a1.354,1.354,0,0,0-1.915-1.915l-1.138,1.138V52.564A5.551,5.551,0,0,0,157.748,47h-6.992a1.365,1.365,0,0,0-1.355,1.355v7.064H115.455a1.355,1.355,0,0,0,0,2.71H158.29a.307.307,0,0,0,.126-.018h.018c.054,0,.09-.018.126-.018h0a5.623,5.623,0,0,0,2.042-.723V90.052l-19.06,19.024h0a.018.018,0,0,0-.018.018h0l-.018.018-.018.018-.018.018-.018.018-.018.018-.018.018-.018.018a.018.018,0,0,1-.018.018.018.018,0,0,1-.018.018.018.018,0,0,1-.018.018v.018a.018.018,0,0,1-.018.018v.018a.018.018,0,0,1-.018.018h0c0,.018-.018.036-.018.054v.018a.018.018,0,0,1-.018.018v.036a.018.018,0,0,1-.018.018v.018c0,.018-.018.018-.018.036l-3.487,8.708a3.2,3.2,0,0,0,4.173,4.173l8.726-3.487c.018,0,.018-.018.036-.018h.018c.018,0,.018,0,.018-.018h.018a.018.018,0,0,0,.018-.018h.018c.018,0,.018-.018.036-.018h0c.018,0,.018-.018.036-.018h0l.018-.018h.018l.018-.018h.018l.018-.018h0c.018,0,.018-.018.036-.018h0c.018,0,.018-.018.036-.018h0l.018-.018h0l.018-.018h0l.036-.036,32.881-32.881a6.277,6.277,0,0,0,1.12-1.481ZM152.112,55.419V49.71h5.619a2.842,2.842,0,0,1,2.023.831,2.8,2.8,0,0,1,.831,2.005v.018a2.861,2.861,0,0,1-2.854,2.854ZM176.339,78.11l.072-.072a4.063,4.063,0,0,1,5.673,5.817l-.325.325-5.745-5.745Zm-35.952,41.7a.473.473,0,0,1-.108-.542l2.728-6.829,4.751,4.751-6.829,2.728A.446.446,0,0,1,140.387,119.808Z" transform="translate(-93.486 -47)"/></svg>