<svg xmlns="http://www.w3.org/2000/svg" width="92.5" height="89.609" viewBox="0 0 92.5 89.609"><defs><style>.a{fill:#acacac;}</style></defs><g transform="translate(0)"><path class="a" d="M88.164,8H4.336A4.326,4.326,0,0,0,0,12.336V75.93a1.45,1.45,0,0,0,1.445,1.445H34.362L32.05,88.938H28.906a1.45,1.45,0,0,0-1.445,1.445v4.336H24.57v2.891H67.93V94.719H65.039V90.383a1.45,1.45,0,0,0-1.445-1.445H60.432L58.12,77.375H91.055A1.45,1.45,0,0,0,92.5,75.93V12.336A4.326,4.326,0,0,0,88.164,8ZM59.258,91.828h2.891v2.891h-31.8V91.828H59.258ZM35.013,88.938l2.313-11.562H55.193l2.312,11.563Zm54.6-14.453H2.891V61.477H89.609ZM69.375,21.008H57.813a1.45,1.45,0,0,0-1.445,1.445V35.461h2.891V23.9H67.93V29.68H62.148V32.57H67.93V39.8H62.148v2.891H67.93v7.227H62.148V52.8H67.93v5.781H59.258V47.023H56.367V58.586H50.586V51.359c0-5.89,7.154-7.19,7.461-7.245a1.7,1.7,0,0,0,.506-.181,1.464,1.464,0,0,0,.506-1.987L46.051,20.267a1.66,1.66,0,0,0-.4-.4,1.51,1.51,0,0,0-2.1.4L30.55,41.947a1.311,1.311,0,0,0-.181.506,1.439,1.439,0,0,0,1.174,1.662c.307.054,7.461,1.355,7.461,7.245v7.227H33.224V47.023H30.333V58.586H28.888V32.57h1.445v2.891h2.891V31.125a1.565,1.565,0,0,0-.108-.578L28.78,20.43a1.418,1.418,0,0,0-.759-.759,1.44,1.44,0,0,0-1.9.759L21.788,30.547a1.269,1.269,0,0,0-.108.578V58.586H10.117V18.117H82.383V58.586H70.82V22.453A1.45,1.45,0,0,0,69.375,21.008ZM41.914,54.25V52.8H47.7V54.25ZM47.7,57.141v1.445H41.914V57.141Zm-5.89-7.227c-.687-4.589-4.625-7.082-7.769-8.148l9.322-15.537V38.352H46.25V26.229l9.322,15.537c-3.144,1.048-7.082,3.541-7.769,8.148ZM25.311,29.68l2.15-5,2.15,5Zm.7,2.891V58.586H24.57V32.57ZM89.609,58.586H85.273V16.672a1.45,1.45,0,0,0-1.445-1.445H8.672a1.45,1.45,0,0,0-1.445,1.445V58.586H2.891V12.336a1.45,1.45,0,0,1,1.445-1.445H88.164a1.45,1.45,0,0,1,1.445,1.445Z" transform="translate(0 -8)"/><g transform="translate(41.914 54.922)"><path class="a" d="M236.336,312a4.336,4.336,0,1,0,4.336,4.336A4.326,4.326,0,0,0,236.336,312Zm0,5.781a1.445,1.445,0,1,1,1.445-1.445A1.45,1.45,0,0,1,236.336,317.781Z" transform="translate(-232 -312)"/></g></g></svg>