<svg xmlns="http://www.w3.org/2000/svg" width="87.622" height="92.5" viewBox="0 0 87.622 92.5"><defs><style>.a{fill:#acacac;}</style></defs><path class="a" d="M125.775,354.392a6.777,6.777,0,0,0,6.775-6.775,6.652,6.652,0,0,0-1.987-4.77l-3.83-3.83a1.363,1.363,0,0,0-1.915,0l-3.83,3.812A6.683,6.683,0,0,0,119,347.6,6.793,6.793,0,0,0,125.775,354.392Zm-2.873-9.629,2.873-2.873,2.873,2.873a4.019,4.019,0,0,1,1.192,2.854,4.065,4.065,0,0,1-8.13,0A3.946,3.946,0,0,1,122.9,344.763Z" transform="translate(-100.03 -277.448)"/><path class="a" d="M92.522,317.7a8.473,8.473,0,0,0,.958.849h-.452a4.065,4.065,0,1,0-.018,8.13h16.26a4.065,4.065,0,0,0,0-8.13h-.452c.325-.271.65-.542.958-.849a12.1,12.1,0,0,0,2.6-13.369l-3.776-8.871a1.355,1.355,0,0,0-1.771-.723l-1.969.831-2.746-2.746a1.363,1.363,0,0,0-1.915,0l-2.764,2.764-1.969-.831a1.355,1.355,0,0,0-1.771.723l-3.776,8.871A12.047,12.047,0,0,0,92.522,317.7Zm.488,3.559a1.355,1.355,0,1,1-1.355,1.355A1.365,1.365,0,0,1,93.01,321.254Zm16.26,0a1.355,1.355,0,0,1,0,2.71H96.84a4.026,4.026,0,0,0,0-2.71ZM92.413,305.392l3.234-7.624,1.554.668a1.329,1.329,0,0,0,1.481-.289l2.439-2.439,2.439,2.439a1.335,1.335,0,0,0,1.481.289l1.554-.668,3.234,7.624a9.469,9.469,0,1,1-17.416,0Z" transform="translate(-75.395 -239.594)"/><path class="a" d="M52.836,104.535a1.215,1.215,0,0,0,.434-.072l2.674-.885c.018,0,.036-.018.054-.018l5.384-1.789a1.339,1.339,0,0,0,.921-1.283V91.455A1.365,1.365,0,0,0,60.948,90.1h-5.4a1.365,1.365,0,0,0-1.355,1.355v9.864l-1.789.6a1.346,1.346,0,0,0-.849,1.716A1.364,1.364,0,0,0,52.836,104.535ZM56.9,92.792h2.71v6.7l-2.71.9Z" transform="translate(-44.706 -73.822)"/><path class="a" d="M127.754,104.535a1.214,1.214,0,0,0,.434-.072l2.674-.885c.018,0,.036-.018.054-.018l5.384-1.789a1.339,1.339,0,0,0,.921-1.283V91.455a1.365,1.365,0,0,0-1.355-1.355h-5.42a1.365,1.365,0,0,0-1.355,1.355v9.864l-1.789.6a1.346,1.346,0,0,0-.849,1.716A1.406,1.406,0,0,0,127.754,104.535Zm4.065-11.743h2.71v6.7l-2.71.9Z" transform="translate(-106.074 -73.822)"/><path class="a" d="M202.754,104.535a1.215,1.215,0,0,0,.434-.072l2.674-.885c.018,0,.036-.018.054-.018l5.384-1.789a1.339,1.339,0,0,0,.921-1.283V91.455a1.365,1.365,0,0,0-1.355-1.355h-5.42a1.365,1.365,0,0,0-1.355,1.355v9.864l-1.789.6a1.346,1.346,0,0,0-.849,1.716A1.406,1.406,0,0,0,202.754,104.535Zm4.065-11.743h2.71v6.7l-2.71.9Z" transform="translate(-167.524 -73.822)"/><path class="a" d="M64.134,185H15.355A1.365,1.365,0,0,0,14,186.355v5.42a1.365,1.365,0,0,0,1.355,1.355H16.71v49.592a1.365,1.365,0,0,0,1.355,1.355H61.424a1.365,1.365,0,0,0,1.355-1.355V193.13h1.355a1.365,1.365,0,0,0,1.355-1.355v-5.42A1.365,1.365,0,0,0,64.134,185ZM19.42,200.718h2.71v40.649H19.42Zm35.229,0v40.649H24.84V200.718Zm2.71,40.649V200.718h2.71v40.649Zm2.71-43.359H19.42V193.13H60.069Zm2.71-7.588H16.71v-2.71H62.779Z" transform="translate(-14 -151.577)"/><path class="a" d="M337.015,70.459A1.365,1.365,0,0,0,338.37,69.1v-15a10.385,10.385,0,0,0-.163-20.614A4.986,4.986,0,0,0,333.4,29.81h-.6a9.4,9.4,0,0,0,2.854-6.775V9.485A4.54,4.54,0,0,0,334.2,6.161a4.516,4.516,0,0,0-4.7-4.7,4.507,4.507,0,0,0-6.648,0,4.516,4.516,0,0,0-4.7,4.7,4.54,4.54,0,0,0-1.463,3.324v13.55a9.468,9.468,0,0,0,2.854,6.775h-.6a4.965,4.965,0,0,0-4.968,4.968V69.1a1.365,1.365,0,0,0,1.355,1.355H319.4v17.9l-4.5,1.5a1.346,1.346,0,0,0-.849,1.716,1.374,1.374,0,0,0,1.283.921,1.215,1.215,0,0,0,.434-.072l5.42-1.807a1.339,1.339,0,0,0,.921-1.283V70.459h8.13V89.338a1.363,1.363,0,0,0,.921,1.283l5.42,1.807a1.215,1.215,0,0,0,.434.072,1.355,1.355,0,0,0,.434-2.638l-4.5-1.5v-17.9Zm7.678-26.648a7.668,7.668,0,0,1-6.323,7.552v-15.1A7.668,7.668,0,0,1,344.694,43.811Zm-9.033-9.033V67.749h-2.71V32.52h.452A2.259,2.259,0,0,1,335.66,34.778Zm-5.42-2.258v18.97h-8.13V32.52Zm-8.13,21.68h8.13v4.065a6.775,6.775,0,0,1-8.13,0ZM319.4,17.615a6.775,6.775,0,0,1,13.55,0v.452h-2.728a5.436,5.436,0,0,0-8.094,0H319.4Zm0-8.13a1.767,1.767,0,0,1,.885-1.554,1.324,1.324,0,0,0,.614-1.5,1.805,1.805,0,0,1,2.2-2.2,1.374,1.374,0,0,0,1.5-.614,1.806,1.806,0,0,1,3.107,0,1.324,1.324,0,0,0,1.5.614,1.805,1.805,0,0,1,2.2,2.2,1.374,1.374,0,0,0,.614,1.5,1.767,1.767,0,0,1,.885,1.554v1.5a9.467,9.467,0,0,0-13.55,0v-1.5Zm0,13.55V20.776h3.4a1.333,1.333,0,0,0,1.12-.6,2.712,2.712,0,0,1,4.517,0,1.333,1.333,0,0,0,1.12.6h3.4v2.258a6.775,6.775,0,0,1-13.55,0Zm-2.71,44.714V34.778a2.259,2.259,0,0,1,2.258-2.258h.452V67.749Zm5.42,0V61.408a9.427,9.427,0,0,0,8.13,0v6.341Z" transform="translate(-259.782)"/></svg>