<svg xmlns="http://www.w3.org/2000/svg" width="50" height="81" viewBox="0 0 50 81"><defs><style>.a{fill:none;}.b{fill:#444;}</style></defs><path class="a" d="M185.848,530.2a5.248,5.248,0,0,0-1.966,3.661,3.677,3.677,0,0,0,.479,1.966h2.973a3.676,3.676,0,0,0,.479-1.966A5.248,5.248,0,0,0,185.848,530.2Z" transform="translate(-160.861 -463.671)"/><g transform="translate(0 0)"><path class="a" d="M185.848,530.2a5.248,5.248,0,0,0-1.966,3.661,3.677,3.677,0,0,0,.479,1.966h2.973a3.676,3.676,0,0,0,.479-1.966A5.248,5.248,0,0,0,185.848,530.2Z" transform="translate(-160.861 -463.671)"/><path class="a" d="M110.344,336H80v29.483h8.054a9.4,9.4,0,0,1-2.364-2.6,10.679,10.679,0,0,1-1.049-8.034c.721-2.9,2.567-4.865,4.362-6.757.62-.639,1.239-1.314,1.821-2,1.188-1.437,2.276-3.808,1.391-5.749a.966.966,0,0,1,.48-1.265,1.022,1.022,0,0,1,1.328.393,2.888,2.888,0,0,0,.354.283,5.756,5.756,0,0,1,.518.442,11.225,11.225,0,0,1,1.214,1.548,13.183,13.183,0,0,1,1.656,3.28,4.939,4.939,0,0,1-.468,4.128c-.139.233-.3.467-.455.688a3.206,3.206,0,0,0-.721,1.5,1.148,1.148,0,0,0,.455,1.032,1.18,1.18,0,0,0,1.125-.037c.556-.319.67-.688.86-1.511a7.747,7.747,0,0,1,.392-1.3A4.776,4.776,0,0,1,103.2,346.7a1,1,0,0,1,.936.614.97.97,0,0,1-.24,1.081,2.668,2.668,0,0,0-.19,2.174c.164.774.392,1.572.62,2.334a17.734,17.734,0,0,1,.961,5.381,8.721,8.721,0,0,1-3.123,6.757c-.215.172-.417.307-.62.455h8.8Z" transform="translate(-70.172 -293.328)"/><path class="a" d="M336,395.788h5.9V383.7H336Z" transform="translate(-293.862 -335.59)"/><path class="a" d="M336,507.67h5.9V498.1H336Z" transform="translate(-293.862 -435.515)"/><path class="a" d="M21.9,498.1H16v9.57h5.9Z" transform="translate(-14.034 -435.515)"/><path class="a" d="M21.9,383.7H16v12.088h5.9Z" transform="translate(-14.034 -335.59)"/><rect class="a" width="5.897" height="3.894" transform="translate(1.966 42.037)"/><path class="a" d="M50.051,592H16v4.914H62.069V592H50.051Z" transform="translate(-14.034 -517.879)"/><path class="a" d="M144.1,412.626a6.9,6.9,0,0,0,2.322-5.295,15.926,15.926,0,0,0-.86-4.791c-.221-.8-.455-1.622-.627-2.457a6.223,6.223,0,0,1-.135-1.72,2.526,2.526,0,0,0-.749,1.007,5.6,5.6,0,0,0-.283.983A3.713,3.713,0,0,1,142,403.13a3.071,3.071,0,0,1-3.145,0,3.116,3.116,0,0,1-1.339-2.8,4.746,4.746,0,0,1,1.032-2.482c.135-.2.258-.393.381-.59a3.055,3.055,0,0,0,.258-2.592,11.178,11.178,0,0,0-1.3-2.666,9.677,9.677,0,0,1-2.015,4.435c-.6.737-1.228,1.437-1.843,2.1-1.646,1.794-3.194,3.477-3.771,5.884a8.881,8.881,0,0,0,.8,6.572,7.2,7.2,0,0,0,3.735,3.133,6.828,6.828,0,0,1-.16-1.5c0-3.44,3.255-5.639,3.391-5.737a.984.984,0,0,1,1.093,0c.135.1,3.391,2.3,3.391,5.737a6.652,6.652,0,0,1-.111,1.2A12.282,12.282,0,0,0,144.1,412.626Z" transform="translate(-113.566 -342.449)"/><path class="a" d="M277.474,280H276v4.914h13.267V280H277.474Z" transform="translate(-241.233 -244.96)"/><path class="a" d="M39.034,16h0A22.825,22.825,0,0,0,16,38.6v1.966H62.069V38.6A22.825,22.825,0,0,0,39.034,16Z" transform="translate(-14.034 -14.034)"/><path class="a" d="M148.354,280H140v4.914h14.742V280Z" transform="translate(-122.371 -244.96)"/><rect class="a" width="46.069" height="3.931" transform="translate(1.966 29.026)"/><path class="a" d="M27.793,280H16v4.914H29.267V280Z" transform="translate(-14.034 -244.96)"/><rect class="a" width="5.897" height="3.894" transform="translate(42.138 42.037)"/><path class="b" d="M25,0h0A24.993,24.993,0,0,0,0,25V79.75A1.254,1.254,0,0,0,1.25,81h47.5A1.254,1.254,0,0,0,50,79.75V25A24.993,24.993,0,0,0,25,0ZM2,66V42H8V72H2ZM48,79H2V74H48ZM25.55,64.163a1,1,0,0,0-1.112,0c-.138.1-3.45,2.338-3.45,5.838a6.948,6.948,0,0,0,.162,1.525,7.38,7.38,0,0,1-3.8-3.187,9.09,9.09,0,0,1-.812-6.688c.587-2.45,2.163-4.162,3.837-5.987.625-.675,1.263-1.375,1.875-2.138a9.858,9.858,0,0,0,2.05-4.512,10.921,10.921,0,0,1,1.325,2.713,3.2,3.2,0,0,1-.262,2.638c-.113.2-.25.4-.388.6a5.042,5.042,0,0,0-1.05,2.525,3.171,3.171,0,0,0,1.363,2.85,3.069,3.069,0,0,0,3.2,0,3.848,3.848,0,0,0,1.8-2.825,5.694,5.694,0,0,1,.288-1,2.487,2.487,0,0,1,.763-1.025,6.333,6.333,0,0,0,.138,1.75c.175.85.413,1.688.637,2.5a16.676,16.676,0,0,1,.875,4.875A7.035,7.035,0,0,1,30.625,70a11.907,11.907,0,0,1-1.75,1.225A6.666,6.666,0,0,0,28.987,70C28.987,66.5,25.688,64.263,25.55,64.163ZM26.987,70a3.858,3.858,0,0,1-.488,2H23.475a3.741,3.741,0,0,1-.487-2,5.34,5.34,0,0,1,2-3.725A5.34,5.34,0,0,1,26.987,70Zm4.925,1.537A8.982,8.982,0,0,0,35,64.663a18.19,18.19,0,0,0-.95-5.475c-.225-.775-.45-1.588-.612-2.375a2.739,2.739,0,0,1,.188-2.212,1,1,0,0,0-.687-1.725,4.7,4.7,0,0,0-4.2,2.862,8.056,8.056,0,0,0-.388,1.325c-.187.838-.3,1.213-.85,1.538a1.107,1.107,0,0,1-1.112.037,1.214,1.214,0,0,1-.45-1.05,3.3,3.3,0,0,1,.712-1.525c.15-.225.312-.462.45-.7a5.159,5.159,0,0,0,.462-4.2,14.643,14.643,0,0,0-2.837-4.912,4.4,4.4,0,0,0-.513-.45c-.113-.088-.275-.225-.35-.288a1,1,0,0,0-1.788.887c.875,1.987-.2,4.4-1.375,5.85-.575.713-1.187,1.388-1.8,2.037-1.775,1.925-3.6,3.925-4.313,6.875a11.1,11.1,0,0,0,1.038,8.175,9.3,9.3,0,0,0,2.338,2.65H10V42H40V72H31.288C31.487,71.85,31.7,71.713,31.912,71.537ZM48,45.963V72H42V42h6ZM48,40H34.5v.5h-2V40h-15v.5h-2V40H2V35H15.5v-.5h2V35h15v-.5h2V35H48Zm0-7H2V29H48Zm0-6H2V25A23,23,0,0,1,25,2h0A23,23,0,0,1,48,25Z" transform="translate(0 0)"/><path class="b" d="M21.9,367.7H16v1.966h5.9Z" transform="translate(-14.034 -321.717)"/><rect class="b" width="5.897" height="1.966" transform="translate(42.138 45.983)"/><path class="b" d="M261.966,276H260v5.9h1.966V276Z" transform="translate(-227.477 -241.452)"/><path class="b" d="M125.966,276H124v5.9h1.966V276Z" transform="translate(-108.489 -241.452)"/><rect class="b" width="5.897" height="1.966" transform="translate(1.966 60.289)"/><rect class="b" width="5.897" height="1.966" transform="translate(42.138 60.289)"/></g></svg>