<svg xmlns="http://www.w3.org/2000/svg" width="60" height="60" viewBox="0 0 60 60"><defs><style>.a{fill:none;}.b{fill:#444;}</style></defs><path class="a" d="M376,197.483h5.9V168H376Z" transform="translate(-328.776 -146.638)"/><path class="a" d="M150.517,168H120v29.483h8.1a9.419,9.419,0,0,1-2.378-2.6,10.626,10.626,0,0,1-1.055-8.034c.725-2.9,2.581-4.865,4.387-6.757.623-.639,1.246-1.314,1.831-2,1.2-1.437,2.289-3.808,1.4-5.749a.964.964,0,0,1,.483-1.265,1.031,1.031,0,0,1,1.335.393,2.9,2.9,0,0,0,.356.283,5.784,5.784,0,0,1,.521.442,11.231,11.231,0,0,1,1.221,1.548,13.154,13.154,0,0,1,1.666,3.28,4.915,4.915,0,0,1-.47,4.128c-.14.233-.305.467-.458.688a3.2,3.2,0,0,0-.725,1.5,1.145,1.145,0,0,0,.458,1.032,1.193,1.193,0,0,0,1.132-.037c.559-.319.674-.688.865-1.511a7.715,7.715,0,0,1,.394-1.3,4.8,4.8,0,0,1,4.272-2.813,1.011,1.011,0,0,1,.941.614.966.966,0,0,1-.242,1.081,2.654,2.654,0,0,0-.191,2.174c.165.774.394,1.572.623,2.334a17.644,17.644,0,0,1,.966,5.381,8.7,8.7,0,0,1-3.141,6.757c-.216.172-.42.307-.623.455h8.85Z" transform="translate(-105.258 -146.328)"/><path class="a" d="M184.1,244.626a6.9,6.9,0,0,0,2.322-5.295,15.926,15.926,0,0,0-.86-4.791c-.221-.8-.455-1.622-.627-2.457a6.224,6.224,0,0,1-.135-1.72,2.526,2.526,0,0,0-.749,1.007,5.594,5.594,0,0,0-.283.983A3.713,3.713,0,0,1,182,235.13a3.071,3.071,0,0,1-3.145,0,3.116,3.116,0,0,1-1.339-2.8,4.746,4.746,0,0,1,1.032-2.482c.135-.2.258-.393.381-.59a3.055,3.055,0,0,0,.258-2.592,11.178,11.178,0,0,0-1.3-2.666,9.677,9.677,0,0,1-2.015,4.435c-.6.737-1.228,1.437-1.843,2.1-1.646,1.794-3.194,3.477-3.771,5.884a8.881,8.881,0,0,0,.8,6.572,7.2,7.2,0,0,0,3.735,3.133,6.829,6.829,0,0,1-.16-1.5c0-3.44,3.255-5.639,3.391-5.737a.984.984,0,0,1,1.093,0c.135.1,3.391,2.3,3.391,5.737a6.651,6.651,0,0,1-.111,1.2A12.282,12.282,0,0,0,184.1,244.626Z" transform="translate(-148.565 -195.71)"/><path class="a" d="M225.848,362.2a5.248,5.248,0,0,0-1.966,3.661,3.676,3.676,0,0,0,.479,1.966h2.973a3.676,3.676,0,0,0,.479-1.966A5.248,5.248,0,0,0,225.848,362.2Z" transform="translate(-195.861 -316.671)"/><rect class="a" width="2.948" height="4.914" transform="translate(1.966 53.121)"/><rect class="a" width="9.828" height="4.914" transform="translate(6.879 53.121)"/><rect class="a" width="56.069" height="1.966" transform="translate(1.966 1.966)"/><rect class="a" width="2.948" height="4.914" transform="translate(55.086 53.121)"/><path class="a" d="M84.138,48H32v2.617l2.507,3.28H81.631l2.507-3.28Z" transform="translate(-28.069 -42.103)"/><path class="a" d="M56,168v29.483h5.9V168Z" transform="translate(-49.121 -146.638)"/><rect class="a" width="9.828" height="4.914" transform="translate(19.065 53.121)"/><rect class="a" width="9.828" height="4.914" transform="translate(31.107 53.121)"/><rect class="a" width="9.828" height="4.914" transform="translate(43.293 53.121)"/><path class="a" d="M102.241,112H56v4.914h46.241Z" transform="translate(-49.121 -97.978)"/><rect class="a" width="56.069" height="1.966" transform="translate(1.966 1.966)"/><path class="a" d="M84.138,48H32v2.617l2.507,3.28H81.631l2.507-3.28Z" transform="translate(-28.069 -42.103)"/><path class="a" d="M90.178,112H56v4.914h46.241V112H90.178Z" transform="translate(-49.121 -97.978)"/><rect class="a" width="56.069" height="1.966" transform="translate(1.966 1.966)"/><path class="a" d="M92.189,424H56v4.914h46.241V424Z" transform="translate(-49.121 -370.879)"/><path class="a" d="M84.138,48H32v2.617l2.507,3.28H81.631l2.507-3.28Z" transform="translate(-28.069 -42.103)"/><path class="a" d="M185.558,234.54c-.221-.8-.455-1.622-.627-2.457a6.224,6.224,0,0,1-.135-1.72,2.526,2.526,0,0,0-.749,1.007,5.594,5.594,0,0,0-.283.983A3.713,3.713,0,0,1,182,235.13a3.071,3.071,0,0,1-3.145,0,3.116,3.116,0,0,1-1.339-2.8,4.746,4.746,0,0,1,1.032-2.482c.135-.2.258-.393.381-.59a3.055,3.055,0,0,0,.258-2.592,11.178,11.178,0,0,0-1.3-2.666,9.677,9.677,0,0,1-2.015,4.435c-.6.737-1.228,1.437-1.843,2.1-1.646,1.794-3.194,3.477-3.771,5.884a8.881,8.881,0,0,0,.8,6.572,7.2,7.2,0,0,0,3.735,3.133,6.829,6.829,0,0,1-.16-1.5c0-3.44,3.255-5.639,3.391-5.737a.984.984,0,0,1,1.093,0c.135.1,3.391,2.3,3.391,5.737a6.651,6.651,0,0,1-.111,1.2,13.921,13.921,0,0,0,1.72-1.2,6.9,6.9,0,0,0,2.322-5.295A16.82,16.82,0,0,0,185.558,234.54Z" transform="translate(-148.565 -195.71)"/><path class="a" d="M376,197.483h5.9V168H376Z" transform="translate(-328.776 -146.638)"/><path class="a" d="M120,197.483h8.1a9.419,9.419,0,0,1-2.378-2.6,10.626,10.626,0,0,1-1.055-8.034c.725-2.9,2.581-4.865,4.387-6.757.623-.639,1.246-1.314,1.831-2,1.2-1.437,2.289-3.808,1.4-5.749a.964.964,0,0,1,.483-1.265,1.031,1.031,0,0,1,1.335.393,2.9,2.9,0,0,0,.356.283,5.784,5.784,0,0,1,.521.442,11.231,11.231,0,0,1,1.221,1.548,13.154,13.154,0,0,1,1.666,3.28,4.915,4.915,0,0,1-.47,4.128c-.14.233-.305.467-.458.688a3.2,3.2,0,0,0-.725,1.5,1.145,1.145,0,0,0,.458,1.032,1.193,1.193,0,0,0,1.132-.037c.559-.319.674-.688.865-1.511a7.715,7.715,0,0,1,.394-1.3,4.8,4.8,0,0,1,4.272-2.813,1.011,1.011,0,0,1,.941.614.966.966,0,0,1-.242,1.081,2.654,2.654,0,0,0-.191,2.174c.165.774.394,1.572.623,2.334a17.644,17.644,0,0,1,.966,5.381,8.7,8.7,0,0,1-3.141,6.757c-.216.172-.42.307-.623.455h8.85V168H120Z" transform="translate(-105.258 -146.328)"/><path class="a" d="M225.848,362.2a5.248,5.248,0,0,0-1.966,3.661,3.676,3.676,0,0,0,.479,1.966h2.973a3.676,3.676,0,0,0,.479-1.966A5.248,5.248,0,0,0,225.848,362.2Z" transform="translate(-195.861 -316.671)"/><path class="a" d="M56,172.484v25h5.9V168H56Z" transform="translate(-49.121 -146.638)"/><path class="b" d="M57.8,9.6A1.047,1.047,0,0,0,58,9V6h1a1,1,0,0,0,1-1V1a1,1,0,0,0-1-1H1A1,1,0,0,0,0,1V5A1,1,0,0,0,1,6H2V9a1.047,1.047,0,0,0,.2.6L5,13.338V58.75A1.254,1.254,0,0,0,6.25,60h47.5A1.254,1.254,0,0,0,55,58.75V58H7V53H55V13.338ZM2,4V2H58V4ZM13,51H7V21h6Zm18.5,0H28.475a3.741,3.741,0,0,1-.487-2,5.34,5.34,0,0,1,2-3.725,5.34,5.34,0,0,1,2,3.725A3.858,3.858,0,0,1,31.5,51Zm4.138-2.013a11.906,11.906,0,0,1-1.75,1.225A6.667,6.667,0,0,0,34,48.988c0-3.5-3.3-5.738-3.45-5.838a1,1,0,0,0-1.112,0c-.138.1-3.45,2.338-3.45,5.838a6.947,6.947,0,0,0,.162,1.525,7.38,7.38,0,0,1-3.8-3.187,9.09,9.09,0,0,1-.812-6.688c.587-2.45,2.162-4.162,3.837-5.987.625-.675,1.263-1.375,1.875-2.137A9.858,9.858,0,0,0,29.3,28a10.921,10.921,0,0,1,1.325,2.713,3.2,3.2,0,0,1-.263,2.637c-.112.2-.25.4-.388.6a5.042,5.042,0,0,0-1.05,2.525,3.171,3.171,0,0,0,1.362,2.85,3.069,3.069,0,0,0,3.2,0,3.848,3.848,0,0,0,1.8-2.825,5.694,5.694,0,0,1,.287-1,2.487,2.487,0,0,1,.763-1.025,6.333,6.333,0,0,0,.138,1.75c.175.85.412,1.688.638,2.5a16.676,16.676,0,0,1,.875,4.875A6.963,6.963,0,0,1,35.638,48.988ZM45,51H36.287c.2-.15.413-.288.613-.463a8.982,8.982,0,0,0,3.088-6.875,18.19,18.19,0,0,0-.95-5.475c-.225-.775-.45-1.588-.612-2.375a2.739,2.739,0,0,1,.188-2.213,1,1,0,0,0-.687-1.725,4.7,4.7,0,0,0-4.2,2.862,8.056,8.056,0,0,0-.388,1.325c-.187.838-.3,1.213-.85,1.537a1.107,1.107,0,0,1-1.112.037,1.214,1.214,0,0,1-.45-1.05,3.3,3.3,0,0,1,.712-1.525c.15-.225.313-.463.45-.7a5.159,5.159,0,0,0,.463-4.2,14.643,14.643,0,0,0-2.838-4.913,4.4,4.4,0,0,0-.513-.45c-.113-.088-.275-.225-.35-.288a1,1,0,0,0-1.788.888c.875,1.987-.2,4.4-1.375,5.85-.575.713-1.187,1.388-1.8,2.038-1.775,1.925-3.6,3.925-4.312,6.875a11.1,11.1,0,0,0,1.038,8.175,9.3,9.3,0,0,0,2.337,2.65H15V21H45Zm8-24V51H47V21h6Zm0-8H7V14H53Zm.5-7H6.5L4,8.663V6H56V8.663Z"/><rect class="b" width="1.966" height="4.914" transform="translate(53.121 53.121)"/><rect class="a" width="2.948" height="4.914" transform="translate(55.086 53.121)"/></svg>