<svg xmlns="http://www.w3.org/2000/svg" width="60" height="86" viewBox="0 0 60 86"><defs><style>.a{fill:#444;}</style></defs><path class="a" d="M59,209H1a1.006,1.006,0,0,0-1,1.005v4.022a1.006,1.006,0,0,0,1,1.005H2v3.016a1.056,1.056,0,0,0,.2.6L5,222.4v37.879H1a1.006,1.006,0,0,0-1,1.005v7.038a1.006,1.006,0,0,0,1,1.005H59a1.006,1.006,0,0,0,1-1.005v-7.038a1.006,1.006,0,0,0-1-1.005H55V222.4l2.8-3.758a1.056,1.056,0,0,0,.2-.6V215.02h1a1.006,1.006,0,0,0,1-1.005v-4.022A1,1,0,0,0,59,209ZM5,267.314H2v-5.027H5Zm12,0H7v-5.027H17ZM7,252.233V246.2h4V244.19H7v-6.033h4v-2.011H7v-6.032h6v30.162H7v-6.032h4v-2.011Zm38-22.119v30.162H36.287c.2-.151.413-.289.613-.465a9.052,9.052,0,0,0,3.088-6.912,18.378,18.378,0,0,0-.95-5.5c-.225-.779-.45-1.6-.612-2.388a2.767,2.767,0,0,1,.188-2.224,1.007,1.007,0,0,0-.687-1.734,4.7,4.7,0,0,0-4.2,2.878,8.132,8.132,0,0,0-.388,1.332c-.187.842-.3,1.219-.85,1.546a1.1,1.1,0,0,1-1.112.038,1.223,1.223,0,0,1-.45-1.056,3.329,3.329,0,0,1,.712-1.533c.15-.226.313-.465.45-.7a5.212,5.212,0,0,0,.463-4.223,14.736,14.736,0,0,0-2.838-4.939,4.408,4.408,0,0,0-.513-.452c-.113-.088-.275-.226-.35-.289a.992.992,0,0,0-1.312-.4,1,1,0,0,0-.475,1.294c.875,2-.2,4.424-1.375,5.882-.575.716-1.187,1.4-1.8,2.049-1.775,1.935-3.6,3.946-4.312,6.912a11.214,11.214,0,0,0,1.038,8.219,9.336,9.336,0,0,0,2.337,2.664H15v-30.15ZM19,228.1v-5.027H29V228.1Zm12,0v-5.027H41V228.1ZM30.55,252.4a1,1,0,0,0-1.112,0c-.138.1-3.45,2.35-3.45,5.869a7.021,7.021,0,0,0,.162,1.533,7.391,7.391,0,0,1-3.8-3.2,9.183,9.183,0,0,1-.812-6.724c.587-2.463,2.162-4.185,3.837-6.02.625-.679,1.263-1.382,1.875-2.149a9.937,9.937,0,0,0,2.05-4.537,11.005,11.005,0,0,1,1.325,2.727,3.233,3.233,0,0,1-.263,2.652c-.112.2-.25.4-.388.6a5.084,5.084,0,0,0-1.05,2.539,3.194,3.194,0,0,0,1.362,2.865,3.055,3.055,0,0,0,3.2,0,3.871,3.871,0,0,0,1.8-2.84,5.75,5.75,0,0,1,.287-1.005,2.5,2.5,0,0,1,.763-1.031,6.4,6.4,0,0,0,.138,1.759c.175.855.412,1.7.638,2.514a16.848,16.848,0,0,1,.875,4.9,7.09,7.09,0,0,1-2.362,5.417,11.906,11.906,0,0,1-1.75,1.232,6.737,6.737,0,0,0,.113-1.232C33.987,254.746,30.688,252.5,30.55,252.4Zm1.438,5.869a3.9,3.9,0,0,1-.487,2.011H28.475a3.777,3.777,0,0,1-.487-2.011,5.378,5.378,0,0,1,2-3.745A5.378,5.378,0,0,1,31.987,258.265ZM17,228.1H7v-5.027H17Zm12,39.211H19v-5.027H29Zm12,0H31v-5.027H41Zm12,0H43v-5.027H53Zm0-31.168H49v2.011h4v6.033H49V246.2h4v6.032H49v2.011h4v6.032H47V230.114h6Zm0-8.043H43v-5.027H53Zm5,34.184v5.027H55v-5.027Zm-2-44.578-2.5,3.356H6.5L4,217.709v-2.677H56Zm2-4.688H2v-2.011H58Z" transform="translate(0 -183.325)"/><path class="a" d="M64,273h1.966v1.966H64Z" transform="translate(-56.138 -238.912)"/><path class="a" d="M96,273h7.862v1.966H96Z" transform="translate(-83.968 -238.912)"/><path class="a" d="M173.1,91.148h-4.766a5.84,5.84,0,0,0-10.147,0h-4.766a.928.928,0,0,0-.921.921V103h1.843V92.991h4.423a.931.931,0,0,0,.848-.553,3.987,3.987,0,0,1,7.322,0,.931.931,0,0,0,.848.553H172.2v10.024c.614,0,1.228,0,1.843-.012V92.057A.965.965,0,0,0,173.1,91.148Z" transform="translate(-133.248 -77.365)"/><path class="a" d="M100.132,1.843h28.512V25.626c.632-.012,1.264-.012,1.9-.025V1.843h1.075a.942.942,0,0,0,.948-.921A.942.942,0,0,0,131.616,0H97.148A.942.942,0,0,0,96.2.921a.942.942,0,0,0,.948.921h1.075V25.675c.632,0,1.264-.012,1.9-.012V1.843Z" transform="translate(-84.382)"/></svg>