<svg xmlns="http://www.w3.org/2000/svg" width="60" height="60" viewBox="0 0 60 60"><defs><style>.a,.c{fill:none;}.a{stroke:#444;stroke-width:2px;}.b{stroke:none;}</style></defs><g transform="translate(-1564 -412)"><g class="a" transform="translate(1564 412)"><rect class="b" width="17.647" height="17.647" rx="1"/><rect class="c" x="1" y="1" width="15.647" height="15.647"/></g><g class="a" transform="translate(1564 433.176)"><rect class="b" width="17.647" height="17.647" rx="1"/><rect class="c" x="1" y="1" width="15.647" height="15.647"/></g><g class="a" transform="translate(1564 454.353)"><rect class="b" width="17.647" height="17.647" rx="1"/><rect class="c" x="1" y="1" width="15.647" height="15.647"/></g><g class="a" transform="translate(1585.176 412)"><rect class="b" width="17.647" height="17.647" rx="1"/><rect class="c" x="1" y="1" width="15.647" height="15.647"/></g><g class="a" transform="translate(1585.176 433.176)"><rect class="b" width="17.647" height="17.647" rx="1"/><rect class="c" x="1" y="1" width="15.647" height="15.647"/></g><g class="a" transform="translate(1585.176 454.353)"><rect class="b" width="17.647" height="17.647" rx="1"/><rect class="c" x="1" y="1" width="15.647" height="15.647"/></g><g class="a" transform="translate(1606.353 412)"><rect class="b" width="17.647" height="17.647" rx="1"/><rect class="c" x="1" y="1" width="15.647" height="15.647"/></g><g class="a" transform="translate(1606.353 433.176)"><rect class="b" width="17.647" height="17.647" rx="1"/><rect class="c" x="1" y="1" width="15.647" height="15.647"/></g><g class="a" transform="translate(1606.353 454.353)"><rect class="b" width="17.647" height="17.647" rx="1"/><rect class="c" x="1" y="1" width="15.647" height="15.647"/></g></g></svg>