<svg xmlns="http://www.w3.org/2000/svg" width="60" height="60" viewBox="0 0 60 60"><defs><style>.a{fill:#444;}</style></defs><path class="a" d="M59,0H1A1,1,0,0,0,0,1V5A1,1,0,0,0,1,6H2V9a1.047,1.047,0,0,0,.2.6L5,13.338V51H1a1,1,0,0,0-1,1v7a1,1,0,0,0,1,1H59a1,1,0,0,0,1-1V52a1,1,0,0,0-1-1H55V13.338L57.8,9.6A1.047,1.047,0,0,0,58,9V6h1a1,1,0,0,0,1-1V1A1,1,0,0,0,59,0ZM5,58H2V53H5Zm12,0H7V53H17ZM7,43V37h4V35H7V29h4V27H7V21h6V51H7V45h4V43ZM45,21V51H36.287c.2-.15.413-.288.613-.463a8.982,8.982,0,0,0,3.088-6.875,18.19,18.19,0,0,0-.95-5.475c-.225-.775-.45-1.588-.612-2.375a2.739,2.739,0,0,1,.188-2.213,1,1,0,0,0-.687-1.725,4.7,4.7,0,0,0-4.2,2.862,8.056,8.056,0,0,0-.388,1.325c-.187.838-.3,1.213-.85,1.537a1.107,1.107,0,0,1-1.112.037,1.214,1.214,0,0,1-.45-1.05,3.3,3.3,0,0,1,.712-1.525c.15-.225.313-.463.45-.7a5.159,5.159,0,0,0,.463-4.2,14.643,14.643,0,0,0-2.838-4.913,4.4,4.4,0,0,0-.513-.45c-.113-.088-.275-.225-.35-.288a1,1,0,0,0-1.788.888c.875,1.987-.2,4.4-1.375,5.85-.575.713-1.187,1.388-1.8,2.038-1.775,1.925-3.6,3.925-4.312,6.875a11.1,11.1,0,0,0,1.038,8.175,9.3,9.3,0,0,0,2.337,2.65H15V21ZM19,19V14H29v5Zm12,0V14H41v5Zm-.45,24.163a1,1,0,0,0-1.112,0c-.138.1-3.45,2.338-3.45,5.838a6.947,6.947,0,0,0,.162,1.525,7.38,7.38,0,0,1-3.8-3.187,9.09,9.09,0,0,1-.812-6.687c.587-2.45,2.162-4.163,3.837-5.988.625-.675,1.263-1.375,1.875-2.138a9.858,9.858,0,0,0,2.05-4.513,10.921,10.921,0,0,1,1.325,2.713,3.2,3.2,0,0,1-.263,2.637c-.112.2-.25.4-.388.6a5.042,5.042,0,0,0-1.05,2.525,3.171,3.171,0,0,0,1.362,2.85,3.069,3.069,0,0,0,3.2,0,3.848,3.848,0,0,0,1.8-2.825,5.694,5.694,0,0,1,.287-1,2.487,2.487,0,0,1,.763-1.025,6.333,6.333,0,0,0,.138,1.75c.175.85.412,1.687.638,2.5a16.676,16.676,0,0,1,.875,4.875A7.035,7.035,0,0,1,35.625,49a11.906,11.906,0,0,1-1.75,1.225A6.666,6.666,0,0,0,33.987,49C33.987,45.5,30.688,43.263,30.55,43.163ZM31.987,49a3.858,3.858,0,0,1-.487,2H28.475a3.741,3.741,0,0,1-.487-2,5.34,5.34,0,0,1,2-3.725A5.34,5.34,0,0,1,31.987,49ZM17,19H7V14H17ZM29,58H19V53H29Zm12,0H31V53H41Zm12,0H43V53H53Zm0-31H49v2h4v6H49v2h4v6H49v2h4v6H47V21h6Zm0-8H43V14H53Zm5,34v5H55V53ZM56,8.663,53.5,12H6.5L4,8.663V6H56ZM58,4H2V2H58Z"/><path class="a" d="M64,64h1.966v1.966H64Z" transform="translate(-56.138 -56.138)"/><path class="a" d="M96,64h7.862v1.966H96Z" transform="translate(-83.968 -56.138)"/></svg>