<svg xmlns="http://www.w3.org/2000/svg" width="35" height="35" viewBox="0 0 35 35"><defs><style>.a{fill:#444;}</style></defs><g transform="translate(11.338)"><path class="a" d="M172.162,0a6.2,6.2,0,1,0,6.162,6.231A6.228,6.228,0,0,0,172.162,0Z" transform="translate(-166 0)"/></g><g transform="translate(11.325 12.371)"><path class="a" d="M174.04,181h-4.108a9.21,9.21,0,0,0-4.121,1.012,25.771,25.771,0,0,1,6.175,2.559,25.771,25.771,0,0,1,6.175-2.559A9.21,9.21,0,0,0,174.04,181Z" transform="translate(-165.81 -181)"/></g><g transform="translate(30.892 18.516)"><path class="a" d="M454.054,271A2.054,2.054,0,0,0,452,273.054v4.108a2.054,2.054,0,0,0,4.108,0v-4.108A2.054,2.054,0,0,0,454.054,271Z" transform="translate(-452 -271)"/></g><g transform="translate(0 18.516)"><path class="a" d="M2.054,271A2.054,2.054,0,0,0,0,273.054v4.108a2.054,2.054,0,0,0,4.108,0v-4.108A2.054,2.054,0,0,0,2.054,271Z" transform="translate(0 -271)"/></g><g transform="translate(2.054 14.39)"><path class="a" d="M31.027,211A1.026,1.026,0,0,0,30,212.027v1.027a4.112,4.112,0,0,1,4.108,4.108v4.108A4.112,4.112,0,0,1,30,225.379v1.027a1.026,1.026,0,0,0,1.027,1.027,24.086,24.086,0,0,1,13.42,4.177V214.327A25.906,25.906,0,0,0,31.027,211Z" transform="translate(-30 -211)"/></g><g transform="translate(18.498 14.39)"><path class="a" d="M285.447,213.054v-1.027A1.026,1.026,0,0,0,284.42,211,25.906,25.906,0,0,0,271,214.327V231.61a24.085,24.085,0,0,1,13.42-4.177,1.026,1.026,0,0,0,1.027-1.027v-1.027a4.112,4.112,0,0,1-4.108-4.108v-4.108A4.112,4.112,0,0,1,285.447,213.054Z" transform="translate(-271 -211)"/></g></svg>