<svg xmlns="http://www.w3.org/2000/svg" width="35" height="35" viewBox="0 0 35 35"><defs><style>.a{fill:#444;}</style></defs><path class="a" d="M17.5,0A17.5,17.5,0,1,0,35,17.5,17.52,17.52,0,0,0,17.5,0Zm7.359,29.188-.754-1.3a.49.49,0,0,0-.422-.243.479.479,0,0,0-.244.066.487.487,0,0,0-.176.667l.755,1.3a13.717,13.717,0,0,1-5.6,1.605V29.453a.921.921,0,1,0-1.842,0v1.832a13.713,13.713,0,0,1-5.522-1.566l.747-1.3a.488.488,0,0,0-.422-.73.49.49,0,0,0-.424.245l-.746,1.3a13.927,13.927,0,0,1-4.186-4.044l1.583-.914a.921.921,0,1,0-.921-1.6L5.1,23.594A13.718,13.718,0,0,1,3.7,18.03l1.5,0a.488.488,0,0,0,0-.975l-1.506,0A13.722,13.722,0,0,1,5.1,11.407l1.585.915a.921.921,0,0,0,.921-1.6L6.026,9.813a13.924,13.924,0,0,1,4.114-4l.754,1.3a.482.482,0,0,0,.178.178.492.492,0,0,0,.488,0,.487.487,0,0,0,.177-.666l-.755-1.3a13.715,13.715,0,0,1,5.6-1.605V5.548a.921.921,0,1,0,1.842,0V3.716a13.713,13.713,0,0,1,5.521,1.566l-.747,1.3a.488.488,0,0,0,.18.665.48.48,0,0,0,.242.065.489.489,0,0,0,.424-.245l.746-1.3a13.925,13.925,0,0,1,4.186,4.044l-1.583.914a.921.921,0,1,0,.921,1.6l1.585-.915A13.714,13.714,0,0,1,31.3,16.971l-1.5,0a.487.487,0,0,0-.486.489.487.487,0,0,0,.487.486h0l1.5,0A13.722,13.722,0,0,1,29.9,23.594l-1.585-.915a.921.921,0,0,0-.921,1.6l1.583.914A13.932,13.932,0,0,1,24.859,29.188Z"/><path class="a" d="M113.673,134.341l-6.257,3.28a2.153,2.153,0,0,0-1.906,0l-6.257-3.28a1.264,1.264,0,0,0-1.666.451,1.125,1.125,0,0,0,.477,1.574l6.384,3.346a2.079,2.079,0,0,0,4.029,0l6.384-3.346a1.125,1.125,0,0,0,.477-1.574A1.263,1.263,0,0,0,113.673,134.341Z" transform="translate(-88.964 -121.837)"/></svg>