<svg xmlns="http://www.w3.org/2000/svg" width="35" height="35" viewBox="0 0 35 35"><defs><style>.a{fill:#444;}</style></defs><path class="a" d="M34.892,15.557a1.14,1.14,0,0,0-1.125-.862A3.864,3.864,0,0,1,31.121,7.97a.973.973,0,0,0,.107-1.32,17.325,17.325,0,0,0-2.772-2.8.975.975,0,0,0-1.33.108,4.034,4.034,0,0,1-4.365.98,3.887,3.887,0,0,1-2.364-3.8A.971.971,0,0,0,19.538.116,17.464,17.464,0,0,0,15.6.105a.974.974,0,0,0-.866,1,3.894,3.894,0,0,1-2.4,3.734,4.044,4.044,0,0,1-4.332-.987.975.975,0,0,0-1.321-.111,17.4,17.4,0,0,0-2.831,2.8.974.974,0,0,0,.1,1.33,3.878,3.878,0,0,1,.979,4.367A4.045,4.045,0,0,1,1.13,14.6a.952.952,0,0,0-1.011.86,17.543,17.543,0,0,0-.007,3.979,1.158,1.158,0,0,0,1.148.861,3.839,3.839,0,0,1,3.6,2.4,3.893,3.893,0,0,1-.979,4.328.972.972,0,0,0-.106,1.318,17.386,17.386,0,0,0,2.768,2.8.973.973,0,0,0,1.332-.105,4.027,4.027,0,0,1,4.363-.981,3.882,3.882,0,0,1,2.368,3.8.971.971,0,0,0,.859,1.022,17.425,17.425,0,0,0,3.937.011.974.974,0,0,0,.866-1,3.89,3.89,0,0,1,2.395-3.732A4.039,4.039,0,0,1,27,31.145a.977.977,0,0,0,1.321.11,17.419,17.419,0,0,0,2.831-2.8.972.972,0,0,0-.1-1.33,3.877,3.877,0,0,1-.98-4.365,3.917,3.917,0,0,1,3.58-2.372l.216.006a.974.974,0,0,0,1.024-.858A17.466,17.466,0,0,0,34.892,15.557ZM17.5,27.589a10.089,10.089,0,1,1,8.662-4.916l-4.418-4.418a6.189,6.189,0,0,0-7.327-8.382.7.7,0,0,0-.485.488.684.684,0,0,0,.194.669s2.181,2.2,2.911,2.927a.452.452,0,0,1,.066.325l-.007.048a13.949,13.949,0,0,1-.332,2.135l-.047.045-.048.05A13.749,13.749,0,0,1,14.5,16.9v0l-.037.009-.035,0a.466.466,0,0,1-.335-.142c-.76-.76-2.855-2.84-2.855-2.84a.712.712,0,0,0-.509-.227.692.692,0,0,0-.652.527,6.189,6.189,0,0,0,8.385,7.316L22.931,26A10.038,10.038,0,0,1,17.5,27.589Z" transform="translate(-0.002 0.001)"/></svg>