<svg xmlns="http://www.w3.org/2000/svg" width="35" height="41.102" viewBox="0 0 35 41.102"><defs><style>.a{fill:#444;}</style></defs><path class="a" d="M128.3,158.457a7.861,7.861,0,1,0,7.861,7.861A7.87,7.87,0,0,0,128.3,158.457Zm4.667,6.381-5.632,5.632a1.21,1.21,0,0,1-1.712,0l-2.152-2.152a1.21,1.21,0,0,1,1.712-1.712l1.3,1.3,4.776-4.776a1.21,1.21,0,0,1,1.712,1.712Zm0,0" transform="translate(-110.803 -145.767)"/><path class="a" d="M34.959,11.151v-.032c-.018-.395-.03-.813-.037-1.277a4.356,4.356,0,0,0-4.1-4.267A16.9,16.9,0,0,1,19.315.725L19.288.7a2.63,2.63,0,0,0-3.575,0l-.027.025a16.905,16.905,0,0,1-11.5,4.849A4.356,4.356,0,0,0,.08,9.842c-.007.462-.019.879-.037,1.277l0,.074c-.092,4.819-.206,10.816,1.8,16.259a20.7,20.7,0,0,0,4.966,7.734,25.975,25.975,0,0,0,9.717,5.748,3.009,3.009,0,0,0,.4.108,2.942,2.942,0,0,0,1.156,0,3.017,3.017,0,0,0,.4-.109,25.992,25.992,0,0,0,9.707-5.751,20.727,20.727,0,0,0,4.966-7.736C35.165,21.987,35.051,15.979,34.959,11.151ZM17.5,30.793A10.243,10.243,0,1,1,27.743,20.55,10.254,10.254,0,0,1,17.5,30.793Zm0,0" transform="translate(0 0.001)"/></svg>